<?xml version="1.0" encoding="UTF-8" standalone="no"?>
<svg
   version="1.1"
   width="735.43732"
   height="108.3209"
   viewBox="0 0 735.4373 108.3209"
   id="svg116"
   sodipodi:docname="navbar_logo.svg"
   inkscape:version="1.4.2 (ebf0e940d0, 2025-05-08)"
   xmlns:inkscape="http://www.inkscape.org/namespaces/inkscape"
   xmlns:sodipodi="http://sodipodi.sourceforge.net/DTD/sodipodi-0.dtd"
   xmlns="http://www.w3.org/2000/svg"
   xmlns:svg="http://www.w3.org/2000/svg">
  <sodipodi:namedview
     id="namedview116"
     pagecolor="#ffffff"
     bordercolor="#000000"
     borderopacity="0.25"
     inkscape:showpageshadow="2"
     inkscape:pageopacity="0.0"
     inkscape:pagecheckerboard="0"
     inkscape:deskcolor="#d1d1d1"
     inkscape:zoom="0.44845914"
     inkscape:cx="356.77721"
     inkscape:cy="-168.35424"
     inkscape:window-width="1366"
     inkscape:window-height="696"
     inkscape:window-x="0"
     inkscape:window-y="0"
     inkscape:window-maximized="1"
     inkscape:current-layer="g116" />
  <defs
     id="defs1">
    <clipPath
       id="clip_0">
      <path
         transform="matrix(1,0,0,-1,0,595.276)"
         d="M 0,595.276 H 841.89 V 0 H 0 Z"
         id="path1" />
    </clipPath>
  </defs>
  <g
     inkscape:groupmode="layer"
     inkscape:label="Layer 1"
     id="g116"
     transform="translate(-52.5903,-245.6751)">
    <g
       clip-path="url(#clip_0)"
       id="g115">
      <path
         transform="matrix(1,0,0,-1,500.8582,309.1854)"
         d="m 0,0 c -2.023,0.946 -3.571,2.302 -4.648,4.063 -1.075,1.764 -1.614,3.813 -1.614,6.152 0,0.963 0.107,2.142 0.321,3.533 0.211,1.391 0.442,2.458 0.69,3.201 l 4.787,1.892 0.603,-0.223 c -0.26,-1.335 -0.389,-3.079 -0.389,-5.232 0,-2.56 0.707,-4.508 2.118,-5.844 1.413,-1.335 3.625,-2.004 6.638,-2.004 2.146,0 4.04,0.299 5.679,0.892 1.638,0.593 2.89,1.466 3.757,2.616 0.376,2.225 0.564,4.692 0.564,7.401 V 45.78 l 6.457,1.725 0.558,-0.334 -0.057,-30.278 C 25.464,12.848 24.703,9.454 23.182,6.707 21.66,3.961 19.536,1.921 16.809,0.584 14.083,-0.751 10.899,-1.419 7.264,-1.419 4.444,-1.419 2.022,-0.946 0,0"
         fill="#241f20"
         id="path2" />
      <path
         transform="matrix(1,0,0,-1,535.8953,297.525)"
         d="M 0,0 C -1.818,1.818 -2.727,4.694 -2.727,8.628 V 34.12 l 6.4,1.725 0.557,-0.334 V 9.129 C 4.23,7.867 4.415,6.883 4.787,6.178 5.158,5.473 5.733,4.972 6.512,4.677 7.291,4.378 8.385,4.231 9.797,4.231 c 0.778,0 1.344,-0.186 1.697,-0.557 0.352,-0.372 0.528,-0.927 0.528,-1.67 0,-1.484 -0.297,-2.643 -0.89,-3.479 C 10.538,-2.309 9.591,-2.727 8.293,-2.727 4.582,-2.727 1.818,-1.818 0,0"
         fill="#241f20"
         id="path3" />
      <path
         transform="matrix(1,0,0,-1,564.8934,272.3663)"
         d="m 0,0 -3.562,-5.343 -5.455,3.84 -2.448,-3.84 -5.733,4.007 3.562,5.231 5.399,-3.728 2.505,3.728 z m 3.061,-23.154 c 0,-3.155 -1.225,-4.731 -3.673,-4.731 -2.115,0 -4.063,0.222 -5.844,0.667 -1.781,0.445 -3.21,1.094 -4.285,1.949 -1.04,-0.855 -2.219,-1.504 -3.535,-1.949 -1.317,-0.445 -2.848,-0.667 -4.592,-0.667 h -1.837 l 1.504,6.958 h 1.279 c 0.78,0 1.539,0.063 2.283,0.194 0.741,0.129 1.261,0.305 1.558,0.528 0.667,1.633 1.316,4.23 1.948,7.792 l 7.179,1.67 0.557,-0.389 c -0.445,-1.892 -0.873,-3.535 -1.28,-4.926 -0.408,-1.392 -0.855,-2.644 -1.336,-3.756 1.966,-0.743 4.582,-1.113 7.849,-1.113 1.483,0 2.225,-0.744 2.225,-2.227"
         fill="#241f20"
         id="path4" />
      <path
         transform="matrix(1,0,0,-1,565.7291,293.2935)"
         d="M 0,0 H 4.453 C 5.231,0 5.797,-0.205 6.15,-0.613 6.501,-1.022 6.678,-1.559 6.678,-2.227 6.678,-3.674 6.391,-4.824 5.815,-5.677 5.241,-6.532 4.285,-6.958 2.949,-6.958 H -1.503 Z"
         fill="#241f20"
         id="path5" />
      <path
         transform="matrix(1,0,0,-1,570.1816,293.2935)"
         d="M 0,0 H 4.453 C 5.231,0 5.797,-0.205 6.15,-0.613 6.501,-1.022 6.678,-1.559 6.678,-2.227 6.678,-3.674 6.391,-4.824 5.815,-5.677 5.241,-6.532 4.285,-6.958 2.949,-6.958 H -1.503 Z"
         fill="#241f20"
         id="path6" />
      <path
         transform="matrix(1,0,0,-1,574.6341,293.2935)"
         d="M 0,0 H 4.453 C 5.231,0 5.797,-0.205 6.15,-0.613 6.501,-1.022 6.678,-1.559 6.678,-2.227 6.678,-3.674 6.391,-4.824 5.815,-5.677 5.241,-6.532 4.285,-6.958 2.949,-6.958 H -1.503 Z"
         fill="#241f20"
         id="path7" />
      <path
         transform="matrix(1,0,0,-1,579.0867,293.2935)"
         d="M 0,0 H 4.453 C 5.231,0 5.796,-0.205 6.15,-0.613 6.501,-1.022 6.678,-1.559 6.678,-2.227 6.678,-3.674 6.391,-4.824 5.815,-5.677 5.241,-6.532 4.284,-6.958 2.949,-6.958 h -4.452 z"
         fill="#241f20"
         id="path8" />
      <path
         transform="matrix(1,0,0,-1,583.5406,293.2935)"
         d="M 0,0 H 4.453 C 5.231,0 5.796,-0.205 6.15,-0.613 6.501,-1.022 6.678,-1.559 6.678,-2.227 6.678,-3.674 6.391,-4.824 5.815,-5.677 5.241,-6.532 4.285,-6.958 2.949,-6.958 H -1.503 Z"
         fill="#241f20"
         id="path9" />
      <path
         transform="matrix(1,0,0,-1,587.9931,293.2935)"
         d="M 0,0 H 4.453 C 5.231,0 5.796,-0.205 6.15,-0.613 6.501,-1.022 6.678,-1.559 6.678,-2.227 6.678,-3.674 6.391,-4.824 5.815,-5.677 5.241,-6.532 4.285,-6.958 2.949,-6.958 H -1.503 Z"
         fill="#241f20"
         id="path10" />
      <path
         transform="matrix(1,0,0,-1,592.4456,293.2935)"
         d="M 0,0 H 4.453 C 5.231,0 5.796,-0.205 6.15,-0.613 6.501,-1.022 6.678,-1.559 6.678,-2.227 6.678,-3.674 6.391,-4.824 5.815,-5.677 5.241,-6.532 4.285,-6.958 2.949,-6.958 H -1.503 Z"
         fill="#241f20"
         id="path11" />
      <path
         transform="matrix(1,0,0,-1,614.0405,308.2104)"
         d="m 0,0 -3.562,-5.344 -5.399,3.841 -2.56,-3.841 -5.677,4.007 3.506,5.232 5.511,-3.784 2.504,3.784 z m 5.12,12.69 c 0,-3.155 -1.225,-4.731 -3.673,-4.731 -2.115,0 -4.063,0.222 -5.843,0.667 -1.782,0.446 -3.211,1.095 -4.286,1.949 -1.04,-0.854 -2.219,-1.503 -3.535,-1.949 -1.317,-0.445 -2.848,-0.667 -4.592,-0.667 h -1.837 l 1.504,6.958 h 1.279 c 0.78,0 1.539,0.063 2.283,0.194 0.741,0.129 1.261,0.306 1.558,0.528 0.667,1.633 1.316,4.23 1.948,7.792 l 7.179,1.67 0.557,-0.389 c -0.445,-1.892 -0.873,-3.535 -1.28,-4.926 -0.408,-1.392 -0.855,-2.644 -1.336,-3.756 1.966,-0.743 4.582,-1.113 7.849,-1.113 1.483,0 2.225,-0.744 2.225,-2.227"
         fill="#241f20"
         id="path12" />
      <path
         transform="matrix(1,0,0,-1,630.9604,313.9437)"
         d="m 0,0 -5.956,4.174 3.73,5.455 5.9,-4.064 z m 23.377,18.423 c 0,-3.154 -1.225,-4.731 -3.673,-4.731 -2.932,0 -5.316,0.231 -7.153,0.696 -1.837,0.463 -3.303,1.132 -4.397,2.003 -1.094,0.872 -2.032,2.013 -2.81,3.423 l -2.06,-1.002 c -3.785,-1.892 -7.088,-3.219 -9.907,-3.978 -2.82,-0.761 -5.788,-1.142 -8.906,-1.142 l 1.504,6.958 c 2.782,0 5.222,0.203 7.318,0.612 2.097,0.408 4.74,1.187 7.932,2.337 1.225,0.445 2.689,0.947 4.396,1.504 l -1.892,0.834 c -2.19,1.002 -3.979,1.706 -5.37,2.115 -1.391,0.408 -2.7,0.613 -3.924,0.613 -1.152,0 -2.219,-0.093 -3.201,-0.279 -0.983,-0.186 -2.05,-0.445 -3.2,-0.779 l -0.279,0.222 2.45,6.179 c 0.667,0.37 1.456,0.667 2.365,0.89 0.908,0.222 1.809,0.334 2.699,0.334 1.002,0 2.152,-0.195 3.452,-0.585 1.298,-0.389 3.005,-1.084 5.12,-2.087 2.857,-1.299 5.287,-2.218 7.291,-2.755 2.003,-0.538 3.989,-0.826 5.956,-0.863 l -1.169,-6.233 c -1.67,-0.075 -3.248,-0.316 -4.731,-0.724 0.853,-0.519 2.032,-0.873 3.534,-1.058 1.503,-0.185 3.664,-0.277 6.484,-0.277 1.447,0 2.171,-0.744 2.171,-2.227"
         fill="#241f20"
         id="path13" />
      <path
         transform="matrix(1,0,0,-1,652.1117,293.2935)"
         d="M 0,0 H 4.453 C 5.231,0 5.796,-0.205 6.15,-0.613 6.501,-1.022 6.678,-1.559 6.678,-2.227 6.678,-3.674 6.391,-4.824 5.815,-5.677 5.241,-6.532 4.284,-6.958 2.949,-6.958 h -4.452 z"
         fill="#241f20"
         id="path14" />
      <path
         transform="matrix(1,0,0,-1,656.5642,293.2935)"
         d="M 0,0 H 4.453 C 5.231,0 5.796,-0.205 6.15,-0.613 6.501,-1.022 6.678,-1.559 6.678,-2.227 6.678,-3.674 6.391,-4.824 5.815,-5.677 5.241,-6.532 4.284,-6.958 2.949,-6.958 h -4.452 z"
         fill="#241f20"
         id="path15" />
      <path
         transform="matrix(1,0,0,-1,661.0167,293.2935)"
         d="M 0,0 H 4.453 C 5.231,0 5.796,-0.205 6.15,-0.613 6.501,-1.022 6.678,-1.559 6.678,-2.227 6.678,-3.674 6.391,-4.824 5.815,-5.677 5.241,-6.532 4.284,-6.958 2.949,-6.958 h -4.452 z"
         fill="#241f20"
         id="path16" />
      <path
         transform="matrix(1,0,0,-1,665.4692,293.2935)"
         d="M 0,0 H 4.453 C 5.231,0 5.796,-0.205 6.15,-0.613 6.501,-1.022 6.678,-1.559 6.678,-2.227 6.678,-3.674 6.391,-4.824 5.815,-5.677 5.241,-6.532 4.284,-6.958 2.949,-6.958 h -4.452 z"
         fill="#241f20"
         id="path17" />
      <path
         transform="matrix(1,0,0,-1,669.9218,293.2935)"
         d="M 0,0 H 4.453 C 5.231,0 5.796,-0.205 6.15,-0.613 6.501,-1.022 6.678,-1.559 6.678,-2.227 6.678,-3.674 6.391,-4.824 5.815,-5.677 5.241,-6.532 4.284,-6.958 2.949,-6.958 h -4.452 z"
         fill="#241f20"
         id="path18" />
      <path
         transform="matrix(1,0,0,-1,674.3743,293.2935)"
         d="M 0,0 H 4.453 C 5.231,0 5.796,-0.205 6.15,-0.613 6.501,-1.022 6.678,-1.559 6.678,-2.227 6.678,-3.674 6.391,-4.824 5.815,-5.677 5.241,-6.532 4.284,-6.958 2.949,-6.958 h -4.452 z"
         fill="#241f20"
         id="path19" />
      <path
         transform="matrix(1,0,0,-1,678.8368,293.2935)"
         d="M 0,0 H 1.681 C 2.839,0 3.931,0.036 4.958,0.111 5.985,0.185 6.685,0.296 7.06,0.445 7.096,0.556 7.115,0.76 7.115,1.057 7.115,2.059 6.827,3.301 6.253,4.786 5.677,6.27 4.908,7.995 3.943,9.962 l 5.544,4.453 h 0.551 c 0.882,-1.929 1.618,-3.989 2.205,-6.178 0.589,-2.191 0.883,-3.934 0.883,-5.232 0,-1.484 -0.241,-2.859 -0.723,-4.119 C 11.92,-2.376 11.178,-3.489 10.176,-4.454 9.248,-5.344 8.052,-5.985 6.586,-6.374 5.12,-6.763 3.015,-6.958 0.269,-6.958 h -1.781 z m 15.576,-14.917 -3.562,-5.344 -5.399,3.841 -2.562,-3.841 -5.677,4.007 3.508,5.233 5.509,-3.785 2.506,3.785 z"
         fill="#241f20"
         id="path20" />
      <path
         transform="matrix(1,0,0,-1,699.7828,300.5574)"
         d="m 0,0 c -1.503,0.131 -2.626,0.27 -3.367,0.418 l 0.991,6.734 0.384,0.222 C -1.404,7.225 -0.449,7.115 0.873,7.04 2.195,6.965 3.389,6.929 4.453,6.929 c 1.467,0 2.992,0.092 4.57,0.279 1.579,0.185 2.68,0.464 3.305,0.834 -0.401,1.559 -1.466,3.488 -3.196,5.789 -1.73,2.301 -3.614,4.416 -5.653,6.345 l 4.285,6.178 h 0.557 c 2.894,-3.081 5.205,-6.076 6.929,-8.989 1.726,-2.913 2.589,-5.575 2.589,-7.986 0,-2.042 -0.567,-3.785 -1.699,-5.232 C 15.009,2.699 13.404,1.614 11.326,0.89 9.248,0.167 6.836,-0.195 4.091,-0.195 2.866,-0.195 1.502,-0.129 0,0"
         fill="#241f20"
         id="path21" />
      <path
         transform="matrix(1,0,0,-1,758.6964,293.2935)"
         d="m 0,0 -2.17,-6.178 c -0.929,-0.298 -2.041,-0.539 -3.339,-0.724 -1.3,-0.185 -2.728,-0.279 -4.286,-0.279 -3.563,0 -6.179,0.621 -7.848,1.866 -1.67,1.242 -2.505,2.995 -2.505,5.259 0,2.856 1.725,5.621 5.177,8.293 -1.67,0.704 -2.932,1.511 -3.785,2.421 -0.855,0.909 -1.281,1.957 -1.281,3.145 0,1.595 0.557,3.209 1.67,4.842 1.113,1.633 2.82,3.098 5.12,4.397 2.302,1.298 5.101,2.226 8.405,2.783 l 0.445,-0.279 -1.178,-7.235 c -1.752,-0.298 -3.189,-0.66 -4.315,-1.085 -1.126,-0.427 -1.938,-0.882 -2.44,-1.364 -0.499,-0.483 -0.749,-0.946 -0.749,-1.392 0,-0.371 0.231,-0.733 0.694,-1.085 0.462,-0.353 1.263,-0.641 2.403,-0.862 1.139,-0.224 2.616,-0.334 4.433,-0.334 L -5.176,11.688 -6.375,6.845 C -8.229,6.214 -9.83,5.426 -11.174,4.48 c -1.345,-0.946 -2.017,-1.809 -2.017,-2.589 0,-0.668 0.477,-1.177 1.429,-1.531 0.953,-0.351 2.363,-0.528 4.233,-0.528 0.916,0 2.583,0.112 5.002,0.335 0.513,0.073 1.245,0.147 2.198,0.222 z"
         fill="#241f20"
         id="path22" />
      <path
         transform="matrix(1,0,0,-1,788.0276,293.2935)"
         d="m 0,0 -2.17,-6.178 c -0.929,-0.298 -2.041,-0.539 -3.339,-0.724 -1.3,-0.185 -2.728,-0.279 -4.286,-0.279 -3.563,0 -6.179,0.621 -7.848,1.866 -1.67,1.242 -2.505,2.995 -2.505,5.259 0,2.856 1.725,5.621 5.177,8.293 -1.67,0.704 -2.932,1.511 -3.785,2.421 -0.855,0.909 -1.281,1.957 -1.281,3.145 0,1.595 0.557,3.209 1.67,4.842 1.113,1.633 2.82,3.098 5.12,4.397 2.302,1.298 5.102,2.226 8.405,2.783 l 0.446,-0.279 -1.179,-7.235 c -1.752,-0.298 -3.189,-0.66 -4.315,-1.085 -1.126,-0.427 -1.938,-0.882 -2.439,-1.364 -0.5,-0.483 -0.75,-0.946 -0.75,-1.392 0,-0.371 0.231,-0.733 0.694,-1.085 0.462,-0.353 1.263,-0.641 2.403,-0.862 1.139,-0.224 2.616,-0.334 4.433,-0.334 L -5.176,11.688 -6.375,6.845 C -8.229,6.214 -9.83,5.426 -11.174,4.48 c -1.345,-0.946 -2.017,-1.809 -2.017,-2.589 0,-0.668 0.477,-1.177 1.429,-1.531 0.953,-0.351 2.363,-0.528 4.233,-0.528 0.916,0 2.583,0.112 5.002,0.335 0.513,0.073 1.245,0.147 2.198,0.222 z"
         fill="#241f20"
         id="path23" />
      <path
         transform="matrix(1,0,0,-1,502.1111,353.063)"
         d="m 0,0 c -1.318,0.623 -2.31,1.492 -2.975,2.605 -0.665,1.114 -0.997,2.4 -0.997,3.861 0,0.719 0.055,1.443 0.167,2.173 0.11,0.73 0.252,1.347 0.423,1.85 l 2.329,0.789 0.295,-0.143 C -1.003,9.937 -1.127,8.836 -1.127,7.831 c 0,-1.269 0.196,-2.34 0.591,-3.215 C -0.142,3.742 0.53,3.066 1.478,2.587 2.426,2.108 3.714,1.868 5.34,1.868 c 1.552,0 2.875,0.198 3.973,0.593 1.094,0.395 2.025,1.048 2.789,1.957 0.245,0.527 0.448,1.258 0.609,2.191 0.16,0.935 0.24,2.059 0.24,3.377 v 19.611 l 2.661,0.647 0.259,-0.107 -0.038,-19.792 C 15.833,7.687 15.415,5.527 14.577,3.862 13.739,2.198 12.514,0.984 10.901,0.217 9.286,-0.55 7.248,-0.933 4.785,-0.933 2.913,-0.933 1.318,-0.622 0,0"
         fill="#e97e27"
         id="path24" />
      <path
         transform="matrix(1,0,0,-1,524.4852,345.98573)"
         d="M 0,0 C -1.134,0.884 -1.7,2.418 -1.7,4.598 V 22.52 l 2.661,0.647 0.221,-0.108 V 4.921 C 1.182,3.986 1.324,3.274 1.607,2.783 1.89,2.292 2.333,1.951 2.937,1.759 3.541,1.568 4.385,1.472 5.469,1.472 6.036,1.472 6.429,1.388 6.651,1.22 6.873,1.052 6.984,0.813 6.984,0.503 6.984,0.047 6.817,-0.372 6.484,-0.755 6.152,-1.139 5.567,-1.33 4.73,-1.33 2.709,-1.33 1.132,-0.887 0,0"
         fill="#e97e27"
         id="path25" />
      <path
         transform="matrix(1,0,0,-1,529.9545,344.5499)"
         d="m 0,0 h 2.956 c 0.591,0 0.99,-0.078 1.201,-0.233 0.209,-0.156 0.313,-0.39 0.313,-0.7 0,-0.455 -0.161,-0.875 -0.48,-1.258 C 3.669,-2.574 3.091,-2.765 2.253,-2.765 h -2.956 z"
         fill="#e97e27"
         id="path26" />
      <path
         transform="matrix(1,0,0,-1,532.9106,344.5499)"
         d="m 0,0 h 2.956 c 0.591,0 0.99,-0.078 1.201,-0.233 0.209,-0.156 0.313,-0.39 0.313,-0.7 0,-0.455 -0.161,-0.875 -0.48,-1.258 C 3.669,-2.574 3.091,-2.765 2.253,-2.765 h -2.956 z"
         fill="#e97e27"
         id="path27" />
      <path
         transform="matrix(1,0,0,-1,535.8667,344.5499)"
         d="m 0,0 h 2.956 c 0.591,0 0.99,-0.078 1.201,-0.233 0.209,-0.156 0.313,-0.39 0.313,-0.7 0,-0.455 -0.161,-0.875 -0.48,-1.258 C 3.669,-2.574 3.091,-2.765 2.253,-2.765 h -2.956 z"
         fill="#e97e27"
         id="path28" />
      <path
         transform="matrix(1,0,0,-1,538.8228,344.5499)"
         d="m 0,0 h 2.956 c 0.591,0 0.99,-0.078 1.201,-0.233 0.209,-0.156 0.313,-0.39 0.313,-0.7 0,-0.455 -0.161,-0.875 -0.48,-1.258 C 3.669,-2.574 3.091,-2.765 2.253,-2.765 h -2.956 z"
         fill="#e97e27"
         id="path29" />
      <path
         transform="matrix(1,0,0,-1,541.7789,344.5499)"
         d="m 0,0 h 2.956 c 0.591,0 0.99,-0.078 1.201,-0.233 0.209,-0.156 0.313,-0.39 0.313,-0.7 0,-0.455 -0.161,-0.875 -0.48,-1.258 C 3.669,-2.574 3.091,-2.765 2.253,-2.765 h -2.956 z"
         fill="#e97e27"
         id="path30" />
      <path
         transform="matrix(1,0,0,-1,544.735,344.5499)"
         d="m 0,0 h 2.956 c 0.591,0 0.99,-0.078 1.201,-0.233 0.209,-0.156 0.313,-0.39 0.313,-0.7 0,-0.455 -0.161,-0.875 -0.48,-1.258 C 3.669,-2.574 3.091,-2.765 2.253,-2.765 h -2.956 z"
         fill="#e97e27"
         id="path31" />
      <path
         transform="matrix(1,0,0,-1,547.6911,344.5499)"
         d="m 0,0 h 2.956 c 0.591,0 0.99,-0.078 1.201,-0.233 0.209,-0.156 0.313,-0.39 0.313,-0.7 0,-0.455 -0.161,-0.875 -0.48,-1.258 C 3.669,-2.574 3.091,-2.765 2.253,-2.765 h -2.956 z"
         fill="#e97e27"
         id="path32" />
      <path
         transform="matrix(1,0,0,-1,550.6472,344.5499)"
         d="m 0,0 h 2.956 c 0.591,0 0.99,-0.078 1.201,-0.233 0.209,-0.156 0.313,-0.39 0.313,-0.7 0,-0.455 -0.161,-0.875 -0.48,-1.258 C 3.669,-2.574 3.091,-2.765 2.253,-2.765 h -2.956 z"
         fill="#e97e27"
         id="path33" />
      <path
         transform="matrix(1,0,0,-1,553.6033,344.5499)"
         d="m 0,0 h 2.956 c 0.591,0 0.99,-0.078 1.201,-0.233 0.209,-0.156 0.313,-0.39 0.313,-0.7 0,-0.455 -0.161,-0.875 -0.48,-1.258 C 3.669,-2.574 3.091,-2.765 2.253,-2.765 h -2.956 z"
         fill="#e97e27"
         id="path34" />
      <path
         transform="matrix(1,0,0,-1,556.5594,344.5499)"
         d="m 0,0 h 2.956 c 0.591,0 0.99,-0.078 1.201,-0.233 0.209,-0.156 0.313,-0.39 0.313,-0.7 0,-0.455 -0.161,-0.875 -0.48,-1.258 C 3.669,-2.574 3.091,-2.765 2.253,-2.765 h -2.956 z"
         fill="#e97e27"
         id="path35" />
      <path
         transform="matrix(1,0,0,-1,559.5155,344.5499)"
         d="m 0,0 h 2.956 c 0.591,0 0.99,-0.078 1.201,-0.233 0.209,-0.156 0.313,-0.39 0.313,-0.7 0,-0.455 -0.161,-0.875 -0.48,-1.258 C 3.669,-2.574 3.091,-2.765 2.253,-2.765 h -2.956 z"
         fill="#e97e27"
         id="path36" />
      <path
         transform="matrix(1,0,0,-1,562.4716,344.5499)"
         d="m 0,0 h 2.956 c 0.591,0 0.99,-0.078 1.201,-0.233 0.209,-0.156 0.313,-0.39 0.313,-0.7 0,-0.455 -0.161,-0.875 -0.48,-1.258 C 3.669,-2.574 3.091,-2.765 2.253,-2.765 h -2.956 z"
         fill="#e97e27"
         id="path37" />
      <path
         transform="matrix(1,0,0,-1,565.4277,344.5499)"
         d="m 0,0 h 2.956 c 0.591,0 0.99,-0.078 1.201,-0.233 0.209,-0.156 0.313,-0.39 0.313,-0.7 0,-0.455 -0.161,-0.875 -0.48,-1.258 C 3.669,-2.574 3.091,-2.765 2.253,-2.765 h -2.956 z"
         fill="#e97e27"
         id="path38" />
      <path
         transform="matrix(1,0,0,-1,581.1679,344.76533)"
         d="M 0,0 C 0.321,0.144 0.579,0.37 0.777,0.682 L 0.481,1.33 c -0.764,1.771 -1.404,3.028 -1.921,3.77 -0.519,0.742 -1.024,1.114 -1.516,1.114 -0.591,0 -1.17,-0.377 -1.737,-1.131 -0.566,-0.754 -1.195,-1.814 -1.884,-3.179 0.961,-0.623 1.94,-1.132 2.937,-1.526 0.999,-0.395 1.816,-0.593 2.458,-0.593 0.468,0 0.863,0.071 1.182,0.215 M 8.019,0.019 C 8.264,-0.138 8.388,-0.383 8.388,-0.718 8.388,-1.269 8.179,-1.712 7.76,-2.048 7.341,-2.383 6.786,-2.55 6.097,-2.55 5.308,-2.55 4.613,-2.455 4.01,-2.263 3.406,-2.072 2.857,-1.772 2.365,-1.364 2.094,-1.915 1.725,-2.323 1.257,-2.586 0.788,-2.849 0.197,-2.981 -0.517,-2.981 c -1.06,0 -2.255,0.246 -3.585,0.737 -1.33,0.489 -2.585,1.154 -3.769,1.993 -0.517,-0.646 -1.01,-1.132 -1.478,-1.455 -0.467,-0.323 -1.015,-0.545 -1.643,-0.665 -0.629,-0.12 -1.46,-0.179 -2.495,-0.179 l 0.775,2.801 c 0.519,0 0.943,0.061 1.275,0.18 0.334,0.12 0.641,0.336 0.925,0.647 0.283,0.31 0.633,0.777 1.053,1.4 0.296,0.431 0.554,0.875 0.775,1.33 0.616,1.077 1.165,1.957 1.645,2.639 0.481,0.683 1.072,1.281 1.774,1.796 0.702,0.516 1.496,0.773 2.383,0.773 0.887,0 1.638,-0.246 2.255,-0.737 C -0.013,7.788 0.499,7.202 0.906,6.519 1.312,5.837 1.86,4.813 2.55,3.449 3.017,2.514 3.431,1.826 3.788,1.383 4.145,0.939 4.546,0.64 4.989,0.485 5.432,0.329 6.047,0.251 6.836,0.251 c 0.541,0 0.936,-0.077 1.183,-0.232"
         fill="#e97e27"
         id="path39" />
      <path
         transform="matrix(1,0,0,-1,604.8167,343.9038)"
         d="m 0,0 -0.887,-2.514 c -1.577,-0.287 -3.634,-0.508 -6.171,-0.664 -2.538,-0.156 -6.011,-0.234 -10.42,-0.234 l 0.703,2.802 c 1.871,0 3.237,0.011 4.1,0.036 -0.492,0.719 -0.88,1.473 -1.163,2.263 -0.283,0.791 -0.426,1.567 -0.426,2.334 0,1.222 0.308,2.282 0.924,3.179 0.615,0.899 1.466,1.587 2.549,2.066 1.085,0.478 2.305,0.718 3.659,0.718 0.863,0 1.748,-0.113 2.66,-0.342 C -3.56,9.418 -2.796,9.136 -2.181,8.8 L -2.513,6.25 -2.661,6.178 c -0.715,0.288 -1.454,0.522 -2.217,0.701 -0.764,0.18 -1.49,0.27 -2.18,0.27 -1.256,0 -2.23,-0.276 -2.92,-0.827 -0.689,-0.551 -1.033,-1.341 -1.033,-2.371 0,-0.718 0.184,-1.471 0.553,-2.262 0.37,-0.79 0.9,-1.521 1.59,-2.192 3.473,0.121 6.368,0.336 8.684,0.648 z"
         fill="#e97e27"
         id="path40" />
      <path
         transform="matrix(1,0,0,-1,618.3776,340.2395)"
         d="m 0,0 c -1.182,-1.485 -2.734,-2.909 -4.656,-4.274 h 1.367 c 1.33,0 2.347,0.066 3.049,0.198 0.702,0.13 1.237,0.328 1.608,0.593 C 1.391,-2.478 0.937,-1.317 0,0 m 1.516,2.191 c 1.28,-1.772 1.921,-3.376 1.921,-4.813 0,-1.054 -0.222,-1.904 -0.665,-2.55 C 2.327,-5.818 1.613,-6.298 0.629,-6.609 -0.357,-6.921 -1.675,-7.076 -3.325,-7.076 h -4.952 l 0.111,2.622 c 1.355,0.935 2.605,1.91 3.751,2.928 1.145,1.018 2.124,2.125 2.937,3.322 -1.085,1.126 -2.341,2.244 -3.769,3.359 -1.429,1.112 -2.981,2.244 -4.657,3.394 l 1.11,2.837 0.222,0.108 c 1.847,-1.413 3.46,-2.712 4.841,-3.897 1.379,-1.186 2.561,-2.317 3.547,-3.394 0.591,1.46 0.887,2.956 0.887,4.49 0,1.269 -0.124,2.58 -0.37,3.932 -0.247,1.353 -0.493,2.509 -0.739,3.466 l 2.587,1.33 0.258,-0.072 C 2.685,16.127 2.92,14.792 3.141,13.343 3.363,11.894 3.473,10.655 3.473,9.626 3.473,6.993 2.821,4.513 1.516,2.191 M -4.73,15.194 c -1.946,-0.24 -4.298,-0.408 -7.057,-0.503 l -0.185,1.939 c 0.714,0 1.269,0.013 1.663,0.036 -0.444,0.67 -0.666,1.365 -0.666,2.083 0,0.863 0.266,1.551 0.796,2.066 0.528,0.514 1.274,0.773 2.234,0.773 0.813,0 1.676,-0.168 2.587,-0.504 l -0.516,-1.868 c -0.79,0.24 -1.368,0.36 -1.738,0.36 -0.443,0 -0.781,-0.126 -1.015,-0.377 -0.235,-0.252 -0.352,-0.569 -0.352,-0.952 0,-0.552 0.234,-1.054 0.702,-1.509 1.06,0.071 2.18,0.168 3.362,0.288 z"
         fill="#e97e27"
         id="path41" />
      <path
         transform="matrix(1,0,0,-1,626.9511,347.4948)"
         d="M 0,0 -0.222,0.108 V 24.029 L 2.476,24.712 2.66,24.569 2.624,0.538 Z"
         fill="#e97e27"
         id="path42" />
      <path
         transform="matrix(1,0,0,-1,659.837,333.7022)"
         d="m 0,0 -2.994,2.048 1.885,2.729 2.994,-2.012 z m -5.137,0 -2.992,2.048 1.81,2.729 2.993,-2.012 z M 9.57,-5.028 c 0.296,-1.103 0.444,-2.025 0.444,-2.766 0,-0.982 -0.185,-1.875 -0.555,-2.676 -0.369,-0.803 -0.948,-1.432 -1.736,-1.885 -1.824,-1.103 -5.162,-1.653 -10.014,-1.653 h -2.513 c -2.784,0 -5.086,0.215 -6.91,0.646 -1.824,0.431 -3.209,1.132 -4.157,2.102 -0.948,0.969 -1.423,2.256 -1.423,3.861 0,0.741 0.055,1.478 0.167,2.208 0.111,0.731 0.253,1.336 0.424,1.814 l 2.181,0.791 0.296,-0.144 c -0.247,-1.197 -0.37,-2.287 -0.37,-3.269 0,-1.388 0.393,-2.459 1.182,-3.215 0.788,-0.754 1.941,-1.275 3.455,-1.562 1.516,-0.287 3.492,-0.431 5.931,-0.431 h 2.586 c 1.848,0 3.579,0.102 5.192,0.306 1.613,0.203 2.789,0.473 3.528,0.809 0.05,0.381 0.074,0.657 0.074,0.825 0,0.742 -0.14,1.526 -0.423,2.352 -0.285,0.827 -0.783,2.006 -1.497,3.538 l 2.549,1.832 h 0.333 c 0.541,-1.22 0.961,-2.382 1.256,-3.483"
         fill="#e97e27"
         id="path43" />
      <path
         transform="matrix(1,0,0,-1,676.1696,345.98573)"
         d="M 0,0 C -1.134,0.884 -1.7,2.418 -1.7,4.598 V 22.52 l 2.661,0.647 0.221,-0.108 V 4.921 C 1.182,3.986 1.324,3.274 1.607,2.783 1.89,2.292 2.333,1.951 2.937,1.759 3.541,1.568 4.385,1.472 5.469,1.472 6.036,1.472 6.429,1.388 6.651,1.22 6.873,1.052 6.984,0.813 6.984,0.503 6.984,0.047 6.817,-0.372 6.484,-0.755 6.152,-1.139 5.567,-1.33 4.73,-1.33 2.709,-1.33 1.133,-0.887 0,0"
         fill="#e97e27"
         id="path44" />
      <path
         transform="matrix(1,0,0,-1,681.639,344.5499)"
         d="m 0,0 h 2.956 c 0.591,0 0.99,-0.078 1.201,-0.233 0.209,-0.156 0.313,-0.39 0.313,-0.7 0,-0.455 -0.161,-0.875 -0.48,-1.258 C 3.669,-2.574 3.091,-2.765 2.253,-2.765 h -2.956 z"
         fill="#e97e27"
         id="path45" />
      <path
         transform="matrix(1,0,0,-1,684.5951,344.5499)"
         d="m 0,0 h 2.956 c 0.591,0 0.99,-0.078 1.201,-0.233 0.209,-0.156 0.313,-0.39 0.313,-0.7 0,-0.455 -0.161,-0.875 -0.48,-1.258 C 3.669,-2.574 3.091,-2.765 2.253,-2.765 h -2.956 z"
         fill="#e97e27"
         id="path46" />
      <path
         transform="matrix(1,0,0,-1,687.5511,344.5499)"
         d="m 0,0 h 2.956 c 0.591,0 0.99,-0.078 1.201,-0.233 0.209,-0.156 0.313,-0.39 0.313,-0.7 0,-0.455 -0.161,-0.875 -0.48,-1.258 C 3.669,-2.574 3.091,-2.765 2.253,-2.765 h -2.956 z"
         fill="#e97e27"
         id="path47" />
      <path
         transform="matrix(1,0,0,-1,690.5073,344.5499)"
         d="m 0,0 h 2.956 c 0.591,0 0.99,-0.078 1.201,-0.233 0.209,-0.156 0.313,-0.39 0.313,-0.7 0,-0.455 -0.161,-0.875 -0.48,-1.258 C 3.669,-2.574 3.091,-2.765 2.253,-2.765 h -2.956 z"
         fill="#e97e27"
         id="path48" />
      <path
         transform="matrix(1,0,0,-1,693.4634,344.5499)"
         d="m 0,0 h 2.956 c 0.591,0 0.99,-0.078 1.201,-0.233 0.209,-0.156 0.313,-0.39 0.313,-0.7 0,-0.455 -0.161,-0.875 -0.48,-1.258 C 3.669,-2.574 3.091,-2.765 2.253,-2.765 h -2.956 z"
         fill="#e97e27"
         id="path49" />
      <path
         transform="matrix(1,0,0,-1,696.4194,344.5499)"
         d="m 0,0 h 2.956 c 0.591,0 0.99,-0.078 1.201,-0.233 0.209,-0.156 0.313,-0.39 0.313,-0.7 0,-0.455 -0.161,-0.875 -0.48,-1.258 C 3.669,-2.574 3.091,-2.765 2.253,-2.765 h -2.956 z"
         fill="#e97e27"
         id="path50" />
      <path
         transform="matrix(1,0,0,-1,699.3755,344.5499)"
         d="m 0,0 h 2.956 c 0.591,0 0.99,-0.078 1.201,-0.233 0.209,-0.156 0.313,-0.39 0.313,-0.7 0,-0.455 -0.161,-0.875 -0.48,-1.258 C 3.669,-2.574 3.091,-2.765 2.253,-2.765 h -2.956 z"
         fill="#e97e27"
         id="path51" />
      <path
         transform="matrix(1,0,0,-1,702.3317,344.5499)"
         d="m 0,0 h 2.956 c 0.591,0 0.99,-0.078 1.201,-0.233 0.209,-0.156 0.313,-0.39 0.313,-0.7 0,-0.455 -0.161,-0.875 -0.48,-1.258 C 3.669,-2.574 3.091,-2.765 2.253,-2.765 h -2.956 z"
         fill="#e97e27"
         id="path52" />
      <path
         transform="matrix(1,0,0,-1,705.2878,344.5499)"
         d="m 0,0 h 2.956 c 0.591,0 0.99,-0.078 1.201,-0.233 0.209,-0.156 0.313,-0.39 0.313,-0.7 0,-0.455 -0.161,-0.875 -0.48,-1.258 C 3.669,-2.574 3.091,-2.765 2.253,-2.765 h -2.956 z"
         fill="#e97e27"
         id="path53" />
      <path
         transform="matrix(1,0,0,-1,708.2438,344.5499)"
         d="m 0,0 h 2.956 c 0.591,0 0.99,-0.078 1.201,-0.233 0.209,-0.156 0.313,-0.39 0.313,-0.7 0,-0.455 -0.161,-0.875 -0.48,-1.258 C 3.669,-2.574 3.091,-2.765 2.253,-2.765 h -2.956 z"
         fill="#e97e27"
         id="path54" />
      <path
         transform="matrix(1,0,0,-1,711.2,344.5499)"
         d="m 0,0 h 2.956 c 0.591,0 0.99,-0.078 1.201,-0.233 0.209,-0.156 0.313,-0.39 0.313,-0.7 0,-0.455 -0.161,-0.875 -0.48,-1.258 C 3.669,-2.574 3.091,-2.765 2.253,-2.765 h -2.956 z"
         fill="#e97e27"
         id="path55" />
      <path
         transform="matrix(1,0,0,-1,714.1561,344.5499)"
         d="m 0,0 h 2.956 c 0.591,0 0.99,-0.078 1.201,-0.233 0.209,-0.156 0.313,-0.39 0.313,-0.7 0,-0.455 -0.161,-0.875 -0.48,-1.258 C 3.669,-2.574 3.091,-2.765 2.253,-2.765 h -2.956 z"
         fill="#e97e27"
         id="path56" />
      <path
         transform="matrix(1,0,0,-1,717.1121,344.5499)"
         d="m 0,0 h 2.956 c 0.591,0 0.99,-0.078 1.201,-0.233 0.209,-0.156 0.313,-0.39 0.313,-0.7 0,-0.455 -0.161,-0.875 -0.48,-1.258 C 3.669,-2.574 3.091,-2.765 2.253,-2.765 h -2.956 z"
         fill="#e97e27"
         id="path57" />
      <path
         transform="matrix(1,0,0,-1,733.2966,344.0474)"
         d="M 0,0 C 0,0.648 -0.161,1.413 -0.481,2.299 -0.801,3.185 -1.227,3.94 -1.755,4.562 -2.285,5.185 -2.834,5.496 -3.4,5.496 -3.843,5.496 -4.244,5.334 -4.601,5.011 -4.958,4.688 -5.279,4.293 -5.562,3.826 -5.845,3.358 -6.343,2.491 -7.058,1.222 c 1.034,-0.671 2.045,-1.192 3.03,-1.562 0.985,-0.372 1.786,-0.557 2.402,-0.557 0.69,0 1.22,0.143 1.588,0.43 C -0.013,-0.37 0,-0.215 0,0 m -0.241,7.149 c 0.948,-0.767 1.7,-1.779 2.255,-3.035 0.553,-1.258 0.83,-2.581 0.83,-3.97 0,-1.198 -0.319,-2.137 -0.959,-2.819 -0.642,-0.683 -1.577,-1.024 -2.81,-1.024 -0.984,0 -2.149,0.233 -3.492,0.701 -1.343,0.467 -2.654,1.143 -3.934,2.029 -0.641,-0.839 -1.404,-1.432 -2.292,-1.778 -0.887,-0.347 -1.983,-0.521 -3.288,-0.521 l 0.703,2.801 c 0.566,0 1.033,0.078 1.404,0.234 0.368,0.155 0.701,0.395 0.997,0.718 0.295,0.323 0.603,0.773 0.923,1.347 l 0.555,0.971 c 0.616,1.077 1.169,1.987 1.663,2.729 0.492,0.743 1.115,1.389 1.865,1.94 0.752,0.55 1.583,0.826 2.495,0.826 1.109,0 2.137,-0.384 3.085,-1.149"
         fill="#e97e27"
         id="path58" />
      <path
         transform="matrix(1,0,0,-1,757.185,344.76533)"
         d="m 0,0 c 0.234,-0.168 0.351,-0.408 0.351,-0.718 0,-0.455 -0.172,-0.874 -0.518,-1.258 -0.344,-0.383 -0.936,-0.574 -1.773,-0.574 -0.912,0 -1.669,0.138 -2.272,0.413 -0.604,0.275 -1.153,0.773 -1.645,1.491 -1.355,-1.39 -3.88,-2.084 -7.575,-2.084 -0.493,0 -1.176,0.036 -2.051,0.108 -0.874,0.072 -1.619,0.18 -2.235,0.323 l 0.407,2.622 0.184,0.144 c 0.542,-0.12 1.22,-0.21 2.033,-0.269 0.813,-0.06 1.478,-0.09 1.995,-0.09 1.182,0 2.34,0.113 3.473,0.341 1.132,0.227 1.996,0.545 2.587,0.952 l -0.112,0.18 c -0.541,1.052 -1.33,2.537 -2.363,4.454 -1.036,1.915 -1.873,3.411 -2.514,4.49 l 2.181,2.227 h 0.295 C -8.862,11.266 -8.105,9.644 -7.28,7.884 -6.454,6.124 -5.796,4.73 -5.302,3.7 -4.81,2.718 -4.379,1.987 -4.009,1.509 -3.64,1.029 -3.246,0.701 -2.827,0.521 -2.409,0.342 -1.866,0.251 -1.201,0.251 -0.634,0.251 -0.234,0.168 0,0"
         fill="#e97e27"
         id="path59" />
      <path
         transform="matrix(1,0,0,-1,762.5615,331.1522)"
         d="m 0,0 -3.03,2.047 1.884,2.73 3.031,-2.012 z m 17.072,-13.613 c 0.197,-0.168 0.296,-0.408 0.296,-0.718 0,-0.455 -0.148,-0.874 -0.444,-1.258 -0.295,-0.383 -0.863,-0.574 -1.699,-0.574 -1.626,0 -2.994,0.126 -4.102,0.377 -1.109,0.252 -2.002,0.628 -2.679,1.132 -0.678,0.502 -1.238,1.137 -1.681,1.902 -1.257,-0.359 -2.661,-0.801 -4.213,-1.328 -2.39,-0.789 -4.275,-1.335 -5.654,-1.634 -1.38,-0.3 -2.759,-0.449 -4.138,-0.449 l 0.703,2.801 c 1.206,0 2.407,0.114 3.602,0.342 1.195,0.227 2.764,0.64 4.711,1.239 2.291,0.742 4.237,1.256 5.838,1.545 -0.714,0.31 -1.565,0.729 -2.549,1.256 -1.478,0.79 -2.667,1.341 -3.566,1.653 -0.9,0.31 -1.755,0.467 -2.569,0.467 -1.158,0 -2.389,-0.24 -3.695,-0.718 l -0.11,0.143 1.108,2.622 c 0.444,0.215 0.961,0.389 1.552,0.521 0.591,0.131 1.157,0.197 1.7,0.197 0.764,0 1.619,-0.179 2.569,-0.538 C 3,-4.992 4.311,-5.591 5.986,-6.43 c 1.798,-0.933 3.228,-1.592 4.286,-1.975 1.06,-0.384 2.033,-0.599 2.92,-0.646 l -0.665,-2.586 c -1.159,-0.144 -2.082,-0.276 -2.772,-0.395 0.542,-0.503 1.287,-0.85 2.236,-1.043 0.948,-0.191 2.26,-0.287 3.935,-0.287 0.566,0 0.948,-0.083 1.146,-0.251"
         fill="#e97e27"
         id="path60" />
      <path
         transform="matrix(1,0,0,-1,778.4498,344.514)"
         d="M 0,0 C 0.788,0 1.459,0.042 2.014,0.126 2.568,0.21 3.055,0.395 3.473,0.683 3.646,1.449 3.731,2.395 3.731,3.521 v 17.527 l 2.588,0.647 0.296,-0.107 V 3.844 c 0,-1.7 -0.29,-3.036 -0.87,-4.005 C 5.167,-1.131 4.347,-1.813 3.289,-2.208 2.229,-2.603 0.887,-2.801 -0.739,-2.801 Z"
         fill="#e97e27"
         id="path61" />
      <path
         transform="matrix(1,0,0,-1,402.5021,286.1981)"
         d="m 0,0 23.186,29.9 c 3.356,4.328 0.272,10.623 -5.205,10.623 L -14.039,-0.17 c -0.872,-1.108 -1.346,-2.477 -1.346,-3.887 0,-3.471 2.814,-6.285 6.286,-6.285 h 7.616 L 6.655,0 Z"
         fill="#e97e27"
         id="path62" />
      <path
         transform="matrix(1,0,0,-1,408.4883,310.0936)"
         d="m 0,0 23.186,29.9 c 3.356,4.328 0.272,10.623 -5.205,10.623 L -14.039,-0.17 c -0.872,-1.108 -1.346,-2.477 -1.346,-3.887 0,-3.471 2.814,-6.285 6.286,-6.285 h 7.616 L 6.655,0 Z"
         fill="#221f1f"
         id="path63" />
      <path
         transform="matrix(1,0,0,-1,421.2827,318.24623)"
         d="m 0,0 -7.722,-9.971 h -3.269 L 2.852,7.603 C 5.327,6.384 3.078,3.99 0,0 m 1.174,11.849 v 0 L -18.682,-13.33 H -4.858 L 6.402,1.172 C 9.778,5.52 6.679,11.849 1.174,11.849"
         fill="#939598"
         id="path64" />
      <path
         transform="matrix(1,0,0,-1,59.3911,292.6617)"
         d="M 0,0 H 14.067 V 19.661 H 13.934 Z M 27.205,-5.745 H 21.233 V -16.342 H 14.067 V -5.745 H -5.839 v 7.213 l 19.906,26.876 h 7.166 V 0 h 5.972 z"
         fill="#050606"
         id="path65" />
      <path
         transform="matrix(1,0,0,-1,96.2831,292.6617)"
         d="M 0,0 H 14.067 V 19.661 H 13.934 Z M 27.205,-5.745 H 21.233 V -16.342 H 14.067 V -5.745 H -5.839 v 7.213 l 19.906,26.876 h 7.166 V 0 h 5.972 z"
         fill="#050606"
         id="path66" />
      <path
         transform="matrix(1,0,0,-1,154.0764,292.8537)"
         d="m 0,0 c 0,-1.404 0.188,-2.788 0.564,-4.149 0.375,-1.363 0.951,-2.575 1.725,-3.639 0.774,-1.065 1.759,-1.915 2.953,-2.554 1.194,-0.637 2.61,-0.957 4.246,-0.957 1.681,0 3.13,0.341 4.347,1.022 1.216,0.681 2.211,1.573 2.985,2.681 0.774,1.107 1.35,2.351 1.726,3.734 0.375,1.383 0.564,2.799 0.564,4.246 0,3.659 -0.852,6.511 -2.555,8.553 -1.703,2.044 -4.014,3.064 -6.934,3.064 -1.769,0 -3.263,-0.35 -4.478,-1.052 C 3.925,10.246 2.93,9.331 2.156,8.203 1.382,7.075 0.83,5.798 0.497,4.373 0.166,2.947 0,1.489 0,0 m 26.409,-16.15 h -7.166 v 4.468 H 19.11 c -1.018,-1.914 -2.5,-3.287 -4.446,-4.118 -1.947,-0.83 -4.004,-1.244 -6.171,-1.244 -2.698,0 -5.054,0.457 -7.066,1.373 -2.014,0.914 -3.683,2.159 -5.01,3.734 -1.327,1.574 -2.322,3.436 -2.986,5.586 -0.664,2.148 -0.995,4.458 -0.995,6.926 0,2.978 0.42,5.553 1.261,7.724 0.839,2.17 1.957,3.957 3.35,5.362 1.394,1.405 2.987,2.436 4.778,3.096 1.792,0.659 3.616,0.99 5.474,0.99 1.061,0 2.145,-0.096 3.251,-0.288 1.105,-0.191 2.167,-0.5 3.185,-0.925 1.017,-0.426 1.957,-0.969 2.82,-1.628 0.863,-0.66 1.581,-1.436 2.156,-2.33 h 0.133 v 16.853 h 7.565 z"
         fill="#050606"
         id="path67" />
      <path
         transform="matrix(1,0,0,-1,0,595.276)"
         d="m 188.912,319.275 h 7.564 v -33.003 h -7.564 z m 0,12.576 h 7.564 v -6.894 h -7.564 z"
         fill="#050606"
         id="path68" />
      <path
         transform="matrix(1,0,0,-1,219.6327,303.2585)"
         d="m 0,0 c 1.68,0 3.107,0.329 4.279,0.99 1.172,0.659 2.124,1.532 2.854,2.617 0.729,1.084 1.26,2.318 1.592,3.701 0.332,1.383 0.497,2.779 0.497,4.182 0,1.404 -0.177,2.766 -0.53,4.086 -0.354,1.318 -0.896,2.489 -1.626,3.511 -0.73,1.022 -1.682,1.829 -2.853,2.426 -1.172,0.595 -2.578,0.893 -4.213,0.893 -1.682,0 -3.097,-0.341 -4.247,-1.021 -1.151,-0.682 -2.08,-1.564 -2.787,-2.649 -0.708,-1.086 -1.217,-2.32 -1.526,-3.703 -0.31,-1.383 -0.464,-2.755 -0.464,-4.117 0,-1.363 0.176,-2.692 0.531,-3.99 0.353,-1.299 0.895,-2.457 1.625,-3.479 0.73,-1.022 1.659,-1.852 2.787,-2.49 C -2.953,0.32 -1.592,0 0,0 m 16.787,-4.021 c 0,-4.981 -1.45,-8.693 -4.346,-11.141 -2.898,-2.446 -7.067,-3.67 -12.507,-3.67 -1.726,0 -3.463,0.171 -5.21,0.511 -1.747,0.341 -3.34,0.915 -4.777,1.724 -1.438,0.808 -2.644,1.873 -3.616,3.191 -0.973,1.32 -1.549,2.937 -1.725,4.852 h 7.564 c 0.221,-1.022 0.597,-1.852 1.128,-2.49 0.531,-0.638 1.161,-1.138 1.891,-1.5 0.73,-0.361 1.537,-0.596 2.422,-0.702 0.884,-0.106 1.813,-0.16 2.787,-0.16 3.052,0 5.285,0.724 6.702,2.17 1.415,1.448 2.122,3.534 2.122,6.257 V 0.063 H 9.09 C 8.028,-1.767 6.579,-3.192 4.744,-4.213 2.908,-5.235 0.928,-5.745 -1.194,-5.745 c -2.744,0 -5.077,0.456 -7.001,1.372 -1.924,0.914 -3.517,2.171 -4.777,3.766 -1.261,1.597 -2.179,3.436 -2.754,5.523 -0.575,2.084 -0.863,4.318 -0.863,6.703 0,2.211 0.354,4.318 1.062,6.318 0.707,2.001 1.725,3.756 3.052,5.268 1.328,1.509 2.953,2.712 4.877,3.606 1.924,0.894 4.103,1.34 6.536,1.34 2.167,0 4.158,-0.437 5.972,-1.308 1.813,-0.873 3.207,-2.246 4.18,-4.117 h 0.132 v 4.532 h 7.565 z"
         fill="#050606"
         id="path69" />
      <path
         transform="matrix(1,0,0,-1,0,595.276)"
         d="m 244.249,319.275 h 7.56399 V 286.272 H 244.249 Z m 0,12.576 h 7.56399 v -6.894 H 244.249 Z"
         fill="#050606"
         id="path70" />
      <path
         transform="matrix(1,0,0,-1,256.5904,276.0005)"
         d="M 0,0 H 5.706 V 9.895 H 13.27 V 0 h 6.835 V -5.427 H 13.27 v -17.617 c 0,-0.767 0.034,-1.428 0.1,-1.98 0.066,-0.553 0.221,-1.021 0.464,-1.404 0.243,-0.383 0.608,-0.67 1.095,-0.862 0.486,-0.192 1.15,-0.287 1.991,-0.287 0.531,0 1.062,0.01 1.592,0.032 0.531,0.02 1.062,0.095 1.593,0.223 v -5.617 c -0.841,-0.086 -1.659,-0.17 -2.456,-0.256 -0.796,-0.085 -1.615,-0.128 -2.454,-0.128 -1.991,0 -3.595,0.181 -4.811,0.542 -1.217,0.362 -2.168,0.895 -2.853,1.597 -0.686,0.702 -1.151,1.584 -1.393,2.649 -0.244,1.064 -0.388,2.276 -0.432,3.639 V -5.427 H 0 Z"
         fill="#050606"
         id="path71" />
      <path
         transform="matrix(1,0,0,-1,303.3016,292.4697)"
         d="m 0,0 c -1.151,-0.725 -2.566,-1.16 -4.246,-1.309 -1.682,-0.151 -3.363,-0.373 -5.044,-0.67 -0.796,-0.128 -1.57,-0.31 -2.322,-0.543 -0.752,-0.235 -1.416,-0.554 -1.99,-0.958 -0.576,-0.404 -1.029,-0.936 -1.361,-1.595 -0.331,-0.661 -0.497,-1.459 -0.497,-2.395 0,-0.808 0.242,-1.49 0.73,-2.042 0.486,-0.554 1.072,-0.989 1.758,-1.309 0.685,-0.32 1.437,-0.542 2.256,-0.67 0.818,-0.128 1.559,-0.192 2.223,-0.192 0.839,0 1.746,0.106 2.72,0.32 0.973,0.212 1.891,0.574 2.754,1.084 0.863,0.512 1.581,1.159 2.156,1.947 C -0.288,-7.545 0,-6.575 0,-5.427 Z m 7.564,-9.194 c 0,-0.893 0.122,-1.532 0.365,-1.914 0.243,-0.383 0.719,-0.575 1.426,-0.575 h 0.797 c 0.309,0 0.664,0.042 1.062,0.128 v -5.044 c -0.266,-0.084 -0.609,-0.18 -1.029,-0.286 -0.421,-0.106 -0.852,-0.202 -1.294,-0.287 -0.443,-0.086 -0.885,-0.149 -1.327,-0.192 -0.443,-0.042 -0.819,-0.064 -1.128,-0.064 -1.549,0 -2.831,0.299 -3.849,0.894 -1.017,0.595 -1.681,1.638 -1.99,3.128 -1.504,-1.404 -3.351,-2.426 -5.54,-3.064 -2.19,-0.639 -4.303,-0.958 -6.337,-0.958 -1.549,0 -3.031,0.202 -4.446,0.606 -1.416,0.405 -2.665,0.999 -3.749,1.788 -1.084,0.786 -1.947,1.787 -2.587,3.001 -0.642,1.212 -0.962,2.626 -0.962,4.244 0,2.044 0.386,3.703 1.16,4.98 0.774,1.276 1.792,2.276 3.053,3 1.26,0.723 2.676,1.244 4.247,1.564 1.569,0.32 3.152,0.564 4.744,0.734 1.37,0.256 2.675,0.435 3.915,0.543 1.238,0.106 2.332,0.287 3.284,0.542 0.951,0.255 1.703,0.649 2.256,1.181 0.552,0.531 0.83,1.33 0.83,2.394 0,0.936 -0.233,1.702 -0.697,2.298 -0.465,0.595 -1.04,1.053 -1.726,1.373 -0.686,0.319 -1.449,0.531 -2.288,0.637 -0.842,0.107 -1.638,0.16 -2.389,0.16 -2.124,0 -3.872,-0.425 -5.242,-1.277 -1.372,-0.851 -2.146,-2.17 -2.322,-3.957 h -7.564 c 0.132,2.127 0.663,3.894 1.592,5.299 0.928,1.404 2.111,2.531 3.549,3.383 1.437,0.85 3.063,1.446 4.877,1.787 1.814,0.34 3.672,0.511 5.574,0.511 1.681,0 3.339,-0.171 4.977,-0.511 1.636,-0.341 3.107,-0.894 4.412,-1.66 C 4.522,14.426 5.574,13.437 6.37,12.224 7.166,11.012 7.564,9.532 7.564,7.788 Z"
         fill="#050606"
         id="path72" />
      <path
         transform="matrix(1,0,0,-1,0,595.276)"
         d="m 319.227,331.851 h 7.564 v -45.579 h -7.564 z"
         fill="#050606"
         id="path73" />
      <path
         transform="matrix(1,0,0,-1,55.8913,345.6665)"
         d="m 0,0 h 5.835 c 1.004,0 1.783,0.255 2.337,0.767 0.555,0.511 0.832,1.236 0.832,2.172 0,0.919 -0.277,1.626 -0.832,2.12 C 7.618,5.553 6.839,5.801 5.835,5.801 H 0 Z m 0,8.142 h 5.387 c 0.792,0 1.452,0.22 1.981,0.664 0.527,0.441 0.792,1.079 0.792,1.91 0,0.937 -0.238,1.597 -0.713,1.978 -0.476,0.381 -1.162,0.572 -2.06,0.572 H 0 Z m -3.301,7.777 h 9.163 c 1.69,0 3.046,-0.381 4.067,-1.144 1.02,-0.764 1.531,-1.917 1.531,-3.46 0,-0.936 -0.234,-1.739 -0.699,-2.406 C 10.294,8.242 9.629,7.726 8.767,7.361 V 7.31 C 9.929,7.067 10.809,6.524 11.407,5.684 12.006,4.842 12.305,3.789 12.305,2.523 12.305,1.795 12.173,1.114 11.909,0.481 11.645,-0.152 11.231,-0.698 10.668,-1.157 10.105,-1.617 9.383,-1.982 8.503,-2.25 7.622,-2.519 6.575,-2.653 5.36,-2.653 h -8.661 z"
         fill="#e97e27"
         id="path74" />
      <path
         transform="matrix(1,0,0,-1,71.4971,329.7473)"
         d="m 0,0 h 3.3 v -10.821 c 0,-0.624 0.031,-1.258 0.093,-1.899 0.061,-0.641 0.238,-1.219 0.528,-1.729 0.29,-0.513 0.73,-0.933 1.32,-1.262 0.59,-0.33 1.422,-0.494 2.496,-0.494 1.073,0 1.905,0.164 2.495,0.494 0.59,0.329 1.03,0.749 1.321,1.262 0.29,0.51 0.466,1.088 0.527,1.729 0.062,0.641 0.093,1.275 0.093,1.899 V 0 h 3.301 v -11.887 c 0,-1.196 -0.185,-2.237 -0.555,-3.122 -0.369,-0.885 -0.894,-1.626 -1.571,-2.223 -0.678,-0.599 -1.492,-1.046 -2.442,-1.34 -0.951,-0.295 -2.007,-0.442 -3.169,-0.442 -1.162,0 -2.218,0.147 -3.169,0.442 -0.951,0.294 -1.765,0.741 -2.442,1.34 -0.679,0.597 -1.202,1.338 -1.571,2.223 C 0.185,-14.124 0,-13.083 0,-11.887 Z"
         fill="#e97e27"
         id="path75" />
      <path
         transform="matrix(1,0,0,-1,93.4674,342.12849)"
         d="m 0,0 c 0,-0.712 0.123,-1.319 0.369,-1.821 0.247,-0.503 0.59,-0.915 1.03,-1.236 0.44,-0.321 0.946,-0.555 1.519,-0.703 0.572,-0.147 1.192,-0.22 1.861,-0.22 0.722,0 1.338,0.082 1.849,0.247 0.51,0.164 0.924,0.378 1.241,0.637 0.317,0.26 0.545,0.56 0.686,0.898 0.141,0.338 0.212,0.679 0.212,1.027 0,0.71 -0.164,1.235 -0.489,1.574 C 7.952,0.741 7.596,0.979 7.208,1.118 6.539,1.36 5.76,1.59 4.871,1.807 3.983,2.023 2.887,2.305 1.584,2.653 0.774,2.861 0.101,3.134 -0.436,3.472 -0.973,3.811 -1.4,4.188 -1.717,4.604 -2.034,5.02 -2.258,5.462 -2.39,5.931 c -0.132,0.467 -0.198,0.944 -0.198,1.43 0,0.937 0.198,1.747 0.594,2.431 0.396,0.685 0.92,1.253 1.571,1.704 0.651,0.452 1.39,0.786 2.218,1.002 0.827,0.218 1.664,0.325 2.509,0.325 0.986,0 1.914,-0.125 2.786,-0.377 0.871,-0.251 1.637,-0.629 2.297,-1.131 0.661,-0.503 1.184,-1.124 1.572,-1.86 0.386,-0.737 0.58,-1.591 0.58,-2.563 H 8.238 C 8.15,8.09 7.737,8.934 6.998,9.429 6.258,9.923 5.316,10.17 4.172,10.17 3.784,10.17 3.388,10.131 2.984,10.053 2.579,9.975 2.209,9.845 1.874,9.664 1.54,9.481 1.263,9.234 1.043,8.921 0.822,8.61 0.713,8.219 0.713,7.752 0.713,7.092 0.919,6.577 1.333,6.203 1.747,5.83 2.288,5.548 2.957,5.357 3.027,5.34 3.304,5.267 3.789,5.137 4.273,5.007 4.814,4.863 5.413,4.708 6.011,4.552 6.597,4.4 7.169,4.252 7.741,4.105 8.15,3.996 8.397,3.927 c 0.616,-0.19 1.152,-0.451 1.611,-0.78 0.457,-0.33 0.84,-0.707 1.149,-1.132 0.307,-0.425 0.536,-0.88 0.686,-1.365 0.15,-0.486 0.224,-0.971 0.224,-1.457 0,-1.041 -0.215,-1.929 -0.646,-2.667 -0.432,-0.737 -1,-1.338 -1.704,-1.807 C 9.013,-5.75 8.212,-6.092 7.314,-6.308 6.416,-6.526 5.501,-6.633 4.568,-6.633 c -1.074,0 -2.086,0.13 -3.037,0.389 -0.95,0.261 -1.778,0.66 -2.482,1.197 -0.705,0.538 -1.267,1.227 -1.69,2.069 -0.422,0.84 -0.643,1.833 -0.66,2.978 z"
         fill="#e97e27"
         id="path76" />
      <path
         transform="matrix(1,0,0,-1,0,595.276)"
         d="m 108.941,265.529 h 3.30101 V 246.95699 H 108.941 Z"
         fill="#e97e27"
         id="path77" />
      <path
         transform="matrix(1,0,0,-1,116.6783,329.7473)"
         d="m 0,0 h 3.485 l 8.609,-13.682 h 0.053 V 0 h 3.142 V -18.572 H 11.803 L 3.221,-4.916 H 3.142 V -18.572 H 0 Z"
         fill="#e97e27"
         id="path78" />
      <path
         transform="matrix(1,0,0,-1,136.4028,329.7473)"
         d="M 0,0 H 13.573 V -2.809 H 3.301 v -4.865 h 9.507 v -2.653 H 3.301 v -5.437 h 10.457 v -2.808 H 0 Z"
         fill="#e97e27"
         id="path79" />
      <path
         transform="matrix(1,0,0,-1,155.732,342.12849)"
         d="m 0,0 c 0,-0.712 0.123,-1.319 0.369,-1.821 0.247,-0.503 0.59,-0.915 1.03,-1.236 0.44,-0.321 0.946,-0.555 1.519,-0.703 0.572,-0.147 1.192,-0.22 1.861,-0.22 0.722,0 1.338,0.082 1.849,0.247 0.51,0.164 0.924,0.378 1.241,0.637 0.317,0.26 0.545,0.56 0.686,0.898 0.141,0.338 0.212,0.679 0.212,1.027 0,0.71 -0.164,1.235 -0.489,1.574 C 7.952,0.741 7.596,0.979 7.208,1.118 6.539,1.36 5.76,1.59 4.871,1.807 3.983,2.023 2.887,2.305 1.584,2.653 0.774,2.861 0.101,3.134 -0.436,3.472 -0.973,3.811 -1.4,4.188 -1.717,4.604 -2.034,5.02 -2.258,5.462 -2.39,5.931 c -0.132,0.467 -0.198,0.944 -0.198,1.43 0,0.937 0.198,1.747 0.594,2.431 0.396,0.685 0.92,1.253 1.571,1.704 0.651,0.452 1.39,0.786 2.218,1.002 0.827,0.218 1.664,0.325 2.509,0.325 0.986,0 1.914,-0.125 2.786,-0.377 0.871,-0.251 1.637,-0.629 2.297,-1.131 0.661,-0.503 1.184,-1.124 1.572,-1.86 0.386,-0.737 0.58,-1.591 0.58,-2.563 H 8.238 C 8.15,8.09 7.737,8.934 6.998,9.429 6.258,9.923 5.316,10.17 4.172,10.17 3.784,10.17 3.388,10.131 2.984,10.053 2.579,9.975 2.209,9.845 1.874,9.664 1.54,9.481 1.263,9.234 1.043,8.921 0.822,8.61 0.713,8.219 0.713,7.752 0.713,7.092 0.919,6.577 1.333,6.203 1.747,5.83 2.288,5.548 2.957,5.357 3.027,5.34 3.304,5.267 3.789,5.137 4.273,5.007 4.814,4.863 5.413,4.708 6.011,4.552 6.597,4.4 7.169,4.252 7.741,4.105 8.15,3.996 8.397,3.927 c 0.616,-0.19 1.152,-0.451 1.611,-0.78 0.457,-0.33 0.84,-0.707 1.149,-1.132 0.307,-0.425 0.536,-0.88 0.686,-1.365 0.15,-0.486 0.224,-0.971 0.224,-1.457 0,-1.041 -0.215,-1.929 -0.646,-2.667 -0.432,-0.737 -1,-1.338 -1.704,-1.807 C 9.013,-5.75 8.212,-6.092 7.314,-6.308 6.416,-6.526 5.501,-6.633 4.568,-6.633 c -1.074,0 -2.086,0.13 -3.037,0.389 -0.95,0.261 -1.778,0.66 -2.482,1.197 -0.705,0.538 -1.267,1.227 -1.69,2.069 -0.422,0.84 -0.643,1.833 -0.66,2.978 z"
         fill="#e97e27"
         id="path80" />
      <path
         transform="matrix(1,0,0,-1,173.3713,342.12849)"
         d="m 0,0 c 0,-0.712 0.123,-1.319 0.369,-1.821 0.247,-0.503 0.59,-0.915 1.03,-1.236 0.44,-0.321 0.946,-0.555 1.519,-0.703 0.572,-0.147 1.192,-0.22 1.861,-0.22 0.722,0 1.338,0.082 1.849,0.247 0.51,0.164 0.924,0.378 1.241,0.637 0.317,0.26 0.545,0.56 0.686,0.898 0.141,0.338 0.212,0.679 0.212,1.027 0,0.71 -0.164,1.235 -0.489,1.574 C 7.952,0.741 7.596,0.979 7.208,1.118 6.539,1.36 5.76,1.59 4.871,1.807 3.983,2.023 2.887,2.305 1.584,2.653 0.774,2.861 0.101,3.134 -0.436,3.472 -0.973,3.811 -1.4,4.188 -1.717,4.604 -2.034,5.02 -2.258,5.462 -2.39,5.931 c -0.132,0.467 -0.198,0.944 -0.198,1.43 0,0.937 0.198,1.747 0.594,2.431 0.396,0.685 0.92,1.253 1.571,1.704 0.651,0.452 1.39,0.786 2.218,1.002 0.827,0.218 1.664,0.325 2.509,0.325 0.986,0 1.914,-0.125 2.786,-0.377 0.871,-0.251 1.637,-0.629 2.297,-1.131 0.661,-0.503 1.184,-1.124 1.572,-1.86 0.386,-0.737 0.58,-1.591 0.58,-2.563 H 8.238 C 8.15,8.09 7.737,8.934 6.998,9.429 6.258,9.923 5.316,10.17 4.172,10.17 3.784,10.17 3.388,10.131 2.984,10.053 2.579,9.975 2.209,9.845 1.874,9.664 1.54,9.481 1.263,9.234 1.043,8.921 0.822,8.61 0.713,8.219 0.713,7.752 0.713,7.092 0.919,6.577 1.333,6.203 1.747,5.83 2.288,5.548 2.957,5.357 3.027,5.34 3.304,5.267 3.789,5.137 4.273,5.007 4.814,4.863 5.413,4.708 6.011,4.552 6.597,4.4 7.169,4.252 7.741,4.105 8.15,3.996 8.397,3.927 c 0.616,-0.19 1.152,-0.451 1.611,-0.78 0.457,-0.33 0.84,-0.707 1.149,-1.132 0.307,-0.425 0.536,-0.88 0.686,-1.365 0.15,-0.486 0.224,-0.971 0.224,-1.457 0,-1.041 -0.215,-1.929 -0.646,-2.667 -0.432,-0.737 -1,-1.338 -1.704,-1.807 C 9.013,-5.75 8.212,-6.092 7.314,-6.308 6.416,-6.526 5.501,-6.633 4.568,-6.633 c -1.074,0 -2.086,0.13 -3.037,0.389 -0.95,0.261 -1.778,0.66 -2.482,1.197 -0.705,0.538 -1.267,1.227 -1.69,2.069 -0.422,0.84 -0.643,1.833 -0.66,2.978 z"
         fill="#e97e27"
         id="path81" />
      <path
         transform="matrix(1,0,0,-1,198.8796,342.12849)"
         d="m 0,0 c 0,-0.712 0.123,-1.319 0.369,-1.821 0.247,-0.503 0.59,-0.915 1.03,-1.236 0.44,-0.321 0.946,-0.555 1.519,-0.703 0.572,-0.147 1.192,-0.22 1.861,-0.22 0.722,0 1.338,0.082 1.849,0.247 0.51,0.164 0.924,0.378 1.241,0.637 0.317,0.26 0.545,0.56 0.686,0.898 0.141,0.338 0.212,0.679 0.212,1.027 0,0.71 -0.164,1.235 -0.489,1.574 C 7.952,0.741 7.596,0.979 7.208,1.118 6.539,1.36 5.76,1.59 4.871,1.807 3.982,2.023 2.887,2.305 1.584,2.653 0.774,2.861 0.101,3.134 -0.436,3.472 -0.973,3.811 -1.4,4.188 -1.717,4.604 -2.034,5.02 -2.258,5.462 -2.39,5.931 c -0.132,0.467 -0.198,0.944 -0.198,1.43 0,0.937 0.198,1.747 0.594,2.431 0.396,0.685 0.92,1.253 1.571,1.704 0.651,0.452 1.39,0.786 2.218,1.002 0.827,0.218 1.664,0.325 2.509,0.325 0.986,0 1.914,-0.125 2.786,-0.377 0.871,-0.251 1.637,-0.629 2.297,-1.131 0.661,-0.503 1.184,-1.124 1.572,-1.86 0.386,-0.737 0.58,-1.591 0.58,-2.563 H 8.238 C 8.15,8.09 7.737,8.934 6.998,9.429 6.258,9.923 5.316,10.17 4.172,10.17 3.784,10.17 3.388,10.131 2.984,10.053 2.579,9.975 2.209,9.845 1.874,9.664 1.54,9.481 1.263,9.234 1.043,8.921 0.822,8.61 0.713,8.219 0.713,7.752 0.713,7.092 0.919,6.577 1.333,6.203 1.747,5.83 2.288,5.548 2.957,5.357 3.027,5.34 3.304,5.267 3.789,5.137 4.273,5.007 4.814,4.863 5.413,4.708 6.011,4.552 6.597,4.4 7.169,4.252 7.741,4.105 8.15,3.996 8.397,3.927 c 0.616,-0.19 1.152,-0.451 1.611,-0.78 0.457,-0.33 0.84,-0.707 1.149,-1.132 0.307,-0.425 0.536,-0.88 0.686,-1.365 0.15,-0.486 0.224,-0.971 0.224,-1.457 0,-1.041 -0.215,-1.929 -0.646,-2.667 -0.432,-0.737 -1,-1.338 -1.704,-1.807 C 9.013,-5.75 8.212,-6.092 7.314,-6.308 6.416,-6.526 5.501,-6.633 4.568,-6.633 c -1.074,0 -2.086,0.13 -3.037,0.389 -0.95,0.261 -1.778,0.66 -2.482,1.197 -0.705,0.538 -1.267,1.227 -1.69,2.069 -0.422,0.84 -0.643,1.833 -0.66,2.978 z"
         fill="#e97e27"
         id="path82" />
      <path
         transform="matrix(1,0,0,-1,214.3531,329.7473)"
         d="M 0,0 H 13.573 V -2.809 H 3.301 v -4.865 h 9.507 v -2.653 H 3.301 v -5.437 h 10.457 v -2.808 H 0 Z"
         fill="#e97e27"
         id="path83" />
      <path
         transform="matrix(1,0,0,-1,234.8182,338.201)"
         d="M 0,0 H 5.413 C 6.469,0 7.27,0.247 7.816,0.741 8.362,1.235 8.635,1.977 8.635,2.965 8.635,3.554 8.546,4.036 8.371,4.409 8.195,4.781 7.952,5.073 7.645,5.281 7.337,5.489 6.984,5.627 6.588,5.697 6.192,5.766 5.783,5.801 5.36,5.801 H 0 Z m -3.301,8.454 h 9.005 c 2.076,0 3.635,-0.442 4.674,-1.327 1.038,-0.885 1.557,-2.116 1.557,-3.694 0,-0.885 -0.132,-1.616 -0.396,-2.198 C 11.275,0.654 10.967,0.187 10.615,-0.169 10.263,-0.525 9.915,-0.78 9.572,-0.936 9.229,-1.093 8.978,-1.196 8.82,-1.249 v -0.052 c 0.281,-0.035 0.584,-0.121 0.911,-0.259 0.325,-0.14 0.629,-0.361 0.911,-0.664 0.281,-0.304 0.515,-0.698 0.699,-1.184 0.185,-0.486 0.278,-1.093 0.278,-1.821 0,-1.093 0.083,-2.085 0.251,-2.978 0.167,-0.893 0.426,-1.53 0.778,-1.912 H 9.11 c -0.247,0.399 -0.392,0.841 -0.435,1.327 -0.045,0.485 -0.067,0.953 -0.067,1.404 0,0.85 -0.052,1.583 -0.158,2.198 -0.106,0.615 -0.3,1.127 -0.581,1.535 -0.282,0.407 -0.665,0.706 -1.149,0.897 -0.484,0.191 -1.105,0.287 -1.861,0.287 H 0 v -7.648 h -3.301 z"
         fill="#e97e27"
         id="path84" />
      <path
         transform="matrix(1,0,0,-1,248.0212,329.7473)"
         d="M 0,0 H 3.433 L 8.16,-14.696 H 8.213 L 13.045,0 h 3.354 L 9.956,-18.572 H 6.285 Z"
         fill="#e97e27"
         id="path85" />
      <path
         transform="matrix(1,0,0,-1,0,595.276)"
         d="m 266.822,265.529 h 3.301 v -18.57201 h -3.301 z"
         fill="#e97e27"
         id="path86" />
      <path
         transform="matrix(1,0,0,-1,287.4193,335.6525)"
         d="m 0,0 c -0.142,0.538 -0.335,1.033 -0.581,1.484 -0.247,0.45 -0.564,0.84 -0.951,1.169 -0.387,0.331 -0.841,0.586 -1.36,0.768 -0.519,0.183 -1.122,0.273 -1.809,0.273 -1.003,0 -1.87,-0.199 -2.601,-0.598 -0.73,-0.398 -1.324,-0.933 -1.782,-1.6 -0.458,-0.668 -0.797,-1.426 -1.017,-2.276 -0.22,-0.85 -0.33,-1.716 -0.33,-2.601 0,-0.885 0.11,-1.752 0.33,-2.601 0.22,-0.85 0.559,-1.608 1.017,-2.276 0.458,-0.668 1.052,-1.201 1.782,-1.6 0.731,-0.399 1.598,-0.598 2.601,-0.598 0.74,0 1.391,0.125 1.954,0.378 0.564,0.251 1.048,0.597 1.453,1.039 0.404,0.443 0.721,0.959 0.95,1.548 0.229,0.589 0.379,1.223 0.449,1.899 h 3.222 c -0.071,-1.11 -0.313,-2.125 -0.726,-3.043 -0.414,-0.92 -0.973,-1.713 -1.677,-2.381 -0.704,-0.667 -1.532,-1.183 -2.482,-1.548 -0.951,-0.364 -1.998,-0.545 -3.143,-0.545 -1.408,0 -2.671,0.255 -3.789,0.767 -1.118,0.511 -2.064,1.21 -2.839,2.094 -0.774,0.884 -1.368,1.916 -1.782,3.095 -0.414,1.179 -0.62,2.436 -0.62,3.772 0,1.317 0.206,2.566 0.62,3.746 0.414,1.179 1.008,2.21 1.782,3.095 0.775,0.885 1.721,1.587 2.839,2.107 1.118,0.521 2.381,0.78 3.789,0.78 1.057,0 2.051,-0.142 2.984,-0.428 C -0.784,5.633 0.04,5.216 0.753,4.67 1.465,4.124 2.042,3.46 2.482,2.68 2.922,1.9 3.195,1.006 3.3,0 Z"
         fill="#e97e27"
         id="path87" />
      <path
         transform="matrix(1,0,0,-1,294.2839,329.7473)"
         d="M 0,0 H 13.573 V -2.809 H 3.301 v -4.865 h 9.507 v -2.653 H 3.301 v -5.437 h 10.457 v -2.808 H 0 Z"
         fill="#e97e27"
         id="path88" />
      <path
         transform="matrix(1,0,0,-1,313.6137,342.12849)"
         d="m 0,0 c 0,-0.712 0.123,-1.319 0.369,-1.821 0.247,-0.503 0.59,-0.915 1.03,-1.236 0.44,-0.321 0.946,-0.555 1.519,-0.703 0.572,-0.147 1.192,-0.22 1.861,-0.22 0.722,0 1.338,0.082 1.849,0.247 0.51,0.164 0.924,0.378 1.241,0.637 0.317,0.26 0.545,0.56 0.686,0.898 0.141,0.338 0.212,0.679 0.212,1.027 0,0.71 -0.164,1.235 -0.489,1.574 C 7.952,0.741 7.596,0.979 7.208,1.118 6.539,1.36 5.76,1.59 4.871,1.807 3.983,2.023 2.887,2.305 1.584,2.653 0.774,2.861 0.101,3.134 -0.436,3.472 -0.973,3.811 -1.4,4.188 -1.717,4.604 -2.034,5.02 -2.258,5.462 -2.39,5.931 c -0.132,0.467 -0.198,0.944 -0.198,1.43 0,0.937 0.198,1.747 0.594,2.431 0.396,0.685 0.92,1.253 1.571,1.704 0.651,0.452 1.39,0.786 2.218,1.002 0.827,0.218 1.664,0.325 2.509,0.325 0.986,0 1.914,-0.125 2.786,-0.377 0.871,-0.251 1.637,-0.629 2.297,-1.131 0.661,-0.503 1.184,-1.124 1.572,-1.86 0.386,-0.737 0.58,-1.591 0.58,-2.563 H 8.238 C 8.15,8.09 7.737,8.934 6.998,9.429 6.258,9.923 5.316,10.17 4.172,10.17 3.784,10.17 3.388,10.131 2.984,10.053 2.579,9.975 2.209,9.845 1.874,9.664 1.54,9.481 1.263,9.234 1.043,8.921 0.822,8.61 0.713,8.219 0.713,7.752 0.713,7.092 0.919,6.577 1.333,6.203 1.747,5.83 2.288,5.548 2.957,5.357 3.027,5.34 3.304,5.267 3.789,5.137 4.273,5.007 4.814,4.863 5.413,4.708 6.011,4.552 6.597,4.4 7.169,4.252 7.741,4.105 8.15,3.996 8.397,3.927 c 0.616,-0.19 1.152,-0.451 1.611,-0.78 0.457,-0.33 0.84,-0.707 1.149,-1.132 0.307,-0.425 0.536,-0.88 0.686,-1.365 0.15,-0.486 0.224,-0.971 0.224,-1.457 0,-1.041 -0.215,-1.929 -0.646,-2.667 -0.432,-0.737 -1,-1.338 -1.704,-1.807 C 9.013,-5.75 8.212,-6.092 7.314,-6.308 6.416,-6.526 5.501,-6.633 4.568,-6.633 c -1.074,0 -2.086,0.13 -3.037,0.389 -0.95,0.261 -1.778,0.66 -2.482,1.197 -0.705,0.538 -1.267,1.227 -1.69,2.069 -0.422,0.84 -0.643,1.833 -0.66,2.978 z"
         fill="#e97e27"
         id="path89" />
      <path
         transform="matrix(1,0,0,-1,363.6348,345.9321)"
         d="M 0,0 -0.082,1.172 H -0.1 C -0.208,0.943 -0.341,0.747 -0.5,0.582 -0.66,0.416 -0.836,0.281 -1.028,0.176 -1.221,0.07 -1.426,-0.006 -1.646,-0.054 c -0.219,-0.049 -0.446,-0.072 -0.68,-0.072 -0.506,0 -0.949,0.092 -1.33,0.274 -0.382,0.184 -0.699,0.429 -0.951,0.736 -0.253,0.306 -0.442,0.661 -0.569,1.063 -0.126,0.404 -0.189,0.826 -0.189,1.272 0,0.444 0.063,0.868 0.189,1.271 0.127,0.403 0.316,0.759 0.569,1.069 0.252,0.309 0.569,0.555 0.951,0.739 0.381,0.183 0.824,0.275 1.33,0.275 0.336,0 0.655,-0.046 0.955,-0.136 C -1.07,6.348 -0.803,6.212 -0.568,6.032 -0.334,5.852 -0.135,5.629 0.027,5.364 0.189,5.101 0.3,4.791 0.36,4.436 H -0.252 C -0.271,4.622 -0.333,4.811 -0.437,5 -0.543,5.188 -0.684,5.361 -0.861,5.518 -1.039,5.674 -1.25,5.802 -1.497,5.901 -1.744,6 -2.02,6.05 -2.326,6.05 -2.753,6.05 -3.12,5.969 -3.426,5.807 -3.733,5.645 -3.984,5.43 -4.179,5.162 -4.375,4.895 -4.519,4.592 -4.612,4.256 -4.705,3.919 -4.752,3.573 -4.752,3.219 c 0,-0.349 0.047,-0.693 0.14,-1.032 0.093,-0.34 0.237,-0.644 0.433,-0.912 0.195,-0.267 0.446,-0.482 0.753,-0.644 0.306,-0.162 0.673,-0.243 1.1,-0.243 0.354,0 0.671,0.058 0.951,0.175 0.279,0.118 0.515,0.282 0.708,0.492 0.192,0.211 0.336,0.46 0.432,0.749 0.096,0.288 0.142,0.603 0.135,0.946 H -2.291 V 3.272 H 0.441 V 0 Z"
         fill="#231f20"
         id="path90" />
      <path
         transform="matrix(1,0,0,-1,366.4028,341.7934)"
         d="M 0,0 C -0.205,-0.114 -0.375,-0.265 -0.51,-0.451 -0.645,-0.638 -0.747,-0.85 -0.816,-1.087 -0.885,-1.324 -0.92,-1.566 -0.92,-1.812 c 0,-0.247 0.035,-0.489 0.104,-0.726 0.069,-0.237 0.171,-0.449 0.306,-0.636 0.135,-0.186 0.305,-0.337 0.51,-0.451 0.204,-0.114 0.441,-0.171 0.712,-0.171 0.27,0 0.508,0.057 0.712,0.171 0.204,0.114 0.374,0.265 0.51,0.451 0.135,0.187 0.237,0.399 0.306,0.636 0.07,0.237 0.104,0.479 0.104,0.726 0,0.246 -0.034,0.488 -0.104,0.725 C 2.171,-0.85 2.069,-0.638 1.934,-0.451 1.798,-0.265 1.628,-0.114 1.424,0 1.22,0.114 0.982,0.171 0.712,0.171 0.441,0.171 0.204,0.114 0,0 M 1.654,0.45 C 1.928,0.318 2.158,0.141 2.344,-0.081 2.53,-0.304 2.671,-0.563 2.768,-0.861 2.864,-1.159 2.912,-1.476 2.912,-1.812 2.912,-2.149 2.864,-2.466 2.768,-2.764 2.671,-3.062 2.53,-3.321 2.344,-3.544 2.158,-3.766 1.928,-3.941 1.654,-4.071 1.381,-4.2 1.067,-4.265 0.712,-4.265 c -0.355,0 -0.669,0.065 -0.942,0.194 -0.274,0.13 -0.503,0.305 -0.69,0.527 -0.186,0.223 -0.328,0.482 -0.424,0.78 -0.096,0.298 -0.144,0.615 -0.144,0.952 0,0.336 0.048,0.653 0.144,0.951 0.096,0.298 0.238,0.557 0.424,0.78 0.187,0.222 0.416,0.399 0.69,0.531 0.273,0.133 0.587,0.199 0.942,0.199 0.355,0 0.669,-0.066 0.942,-0.199"
         fill="#231f20"
         id="path91" />
      <path
         transform="matrix(1,0,0,-1,370.2705,341.2797)"
         d="M 0,0 1.46,-4.084 H 1.479 L 2.921,0 H 3.507 L 1.767,-4.652 H 1.163 L -0.631,0 Z"
         fill="#231f20"
         id="path92" />
      <path
         transform="matrix(1,0,0,-1,0,595.276)"
         d="m 374.003,250.3 h 0.75699 v -0.95599 H 374.003 Z"
         fill="#231f20"
         id="path93" />
      <path
         transform="matrix(1,0,0,-1,383.1997,339.4946)"
         d="m 0,0 v -0.522 h -2.245 v -5.915 h -0.613 v 5.915 H -5.094 V 0 Z"
         fill="#231f20"
         id="path94" />
      <path
         transform="matrix(1,0,0,-1,383.3892,341.2797)"
         d="m 0,0 v -1.091 h 0.018 c 0.144,0.379 0.368,0.67 0.672,0.874 0.303,0.205 0.665,0.298 1.086,0.28 V -0.505 C 1.518,-0.493 1.283,-0.527 1.073,-0.608 0.862,-0.689 0.681,-0.806 0.527,-0.956 0.374,-1.106 0.255,-1.285 0.171,-1.492 0.087,-1.699 0.045,-1.927 0.045,-2.173 V -4.652 H -0.523 V 0 Z"
         fill="#231f20"
         id="path95" />
      <path
         transform="matrix(1,0,0,-1,388.6641,343.3891)"
         d="M 0,0 C -0.036,-0.066 -0.105,-0.114 -0.208,-0.145 -0.31,-0.175 -0.4,-0.195 -0.478,-0.208 -0.719,-0.25 -0.966,-0.287 -1.222,-0.32 -1.478,-0.354 -1.71,-0.403 -1.921,-0.469 c -0.21,-0.066 -0.383,-0.161 -0.518,-0.284 -0.135,-0.124 -0.203,-0.3 -0.203,-0.527 0,-0.145 0.028,-0.273 0.086,-0.384 0.056,-0.111 0.133,-0.207 0.229,-0.288 0.097,-0.081 0.208,-0.144 0.334,-0.186 0.126,-0.042 0.256,-0.062 0.388,-0.062 0.216,0 0.424,0.033 0.622,0.098 0.198,0.067 0.371,0.164 0.519,0.29 0.147,0.125 0.264,0.279 0.351,0.459 0.087,0.18 0.131,0.385 0.131,0.614 V 0 Z m -2.84,1.388 c 0.096,0.199 0.226,0.361 0.392,0.487 0.165,0.126 0.359,0.22 0.581,0.279 0.223,0.061 0.469,0.091 0.74,0.091 0.204,0 0.408,-0.02 0.613,-0.058 C -0.31,2.146 -0.126,2.073 0.036,1.965 0.198,1.857 0.33,1.705 0.433,1.51 0.535,1.314 0.586,1.061 0.586,0.748 v -2.471 c 0,-0.228 0.111,-0.342 0.333,-0.342 0.066,0 0.127,0.012 0.181,0.036 V -2.507 C 1.034,-2.519 0.975,-2.528 0.924,-2.534 0.873,-2.54 0.808,-2.543 0.73,-2.543 c -0.144,0 -0.26,0.02 -0.347,0.059 -0.087,0.039 -0.155,0.094 -0.203,0.167 -0.048,0.072 -0.079,0.157 -0.095,0.256 -0.015,0.1 -0.022,0.209 -0.022,0.33 H 0.045 c -0.103,-0.151 -0.206,-0.285 -0.311,-0.402 -0.106,-0.117 -0.223,-0.215 -0.352,-0.293 -0.129,-0.078 -0.277,-0.137 -0.442,-0.18 -0.165,-0.042 -0.362,-0.063 -0.59,-0.063 -0.217,0 -0.419,0.025 -0.609,0.076 -0.189,0.051 -0.355,0.133 -0.496,0.244 -0.141,0.111 -0.252,0.252 -0.333,0.423 -0.081,0.172 -0.122,0.375 -0.122,0.61 0,0.324 0.072,0.578 0.216,0.761 0.145,0.183 0.335,0.324 0.573,0.419 0.237,0.097 0.505,0.164 0.802,0.203 0.298,0.039 0.6,0.077 0.907,0.113 0.12,0.012 0.225,0.027 0.315,0.045 0.09,0.018 0.166,0.049 0.226,0.094 0.06,0.046 0.106,0.108 0.139,0.186 0.033,0.078 0.05,0.18 0.05,0.307 0,0.191 -0.032,0.349 -0.095,0.472 -0.063,0.123 -0.15,0.221 -0.261,0.293 -0.112,0.072 -0.241,0.122 -0.388,0.15 -0.148,0.026 -0.305,0.04 -0.473,0.04 C -1.56,1.767 -1.854,1.682 -2.083,1.51 -2.312,1.339 -2.432,1.063 -2.444,0.685 h -0.568 c 0.018,0.27 0.075,0.504 0.172,0.703"
         fill="#231f20"
         id="path96" />
      <path
         transform="matrix(1,0,0,-1,390.9448,341.2797)"
         d="m 0,0 v -0.803 h 0.018 c 0.108,0.283 0.3,0.51 0.577,0.681 0.277,0.172 0.58,0.258 0.91,0.258 0.325,0 0.597,-0.043 0.817,-0.127 C 2.541,-0.075 2.717,-0.193 2.849,-0.347 2.981,-0.5 3.074,-0.688 3.128,-0.91 3.183,-1.133 3.209,-1.383 3.209,-1.659 V -4.652 H 2.642 v 2.903 c 0,0.198 -0.018,0.383 -0.055,0.555 -0.036,0.171 -0.099,0.319 -0.189,0.446 -0.09,0.126 -0.211,0.226 -0.365,0.297 -0.153,0.072 -0.344,0.108 -0.573,0.108 -0.228,0 -0.431,-0.04 -0.608,-0.121 C 0.674,-0.546 0.524,-0.656 0.401,-0.798 0.278,-0.939 0.182,-1.107 0.113,-1.303 0.043,-1.498 0.006,-1.71 0,-1.938 V -4.652 H -0.568 V 0 Z"
         fill="#231f20"
         id="path97" />
      <path
         transform="matrix(1,0,0,-1,397.9053,342.186)"
         d="m 0,0 c -0.066,0.129 -0.155,0.236 -0.266,0.32 -0.111,0.084 -0.239,0.146 -0.383,0.185 -0.144,0.039 -0.298,0.058 -0.46,0.058 -0.126,0 -0.254,-0.013 -0.383,-0.04 C -1.622,0.496 -1.74,0.451 -1.848,0.388 -1.957,0.325 -2.043,0.242 -2.11,0.14 -2.176,0.038 -2.209,-0.089 -2.209,-0.238 c 0,-0.127 0.032,-0.234 0.095,-0.321 0.063,-0.087 0.142,-0.161 0.239,-0.22 0.096,-0.061 0.201,-0.111 0.315,-0.15 0.114,-0.039 0.22,-0.07 0.316,-0.094 l 0.757,-0.171 c 0.162,-0.025 0.323,-0.068 0.483,-0.131 0.159,-0.064 0.3,-0.146 0.423,-0.248 0.123,-0.103 0.224,-0.229 0.302,-0.379 0.078,-0.151 0.117,-0.327 0.117,-0.531 0,-0.253 -0.057,-0.468 -0.171,-0.646 C 0.553,-3.306 0.407,-3.45 0.23,-3.562 0.053,-3.673 -0.147,-3.752 -0.37,-3.8 c -0.222,-0.049 -0.442,-0.072 -0.658,-0.072 -0.547,0 -0.99,0.129 -1.33,0.388 -0.339,0.257 -0.533,0.672 -0.581,1.244 h 0.568 c 0.024,-0.385 0.163,-0.675 0.419,-0.87 0.255,-0.196 0.573,-0.293 0.951,-0.293 0.139,0 0.281,0.014 0.429,0.045 0.147,0.03 0.283,0.081 0.41,0.153 0.126,0.072 0.23,0.164 0.311,0.275 0.081,0.111 0.122,0.247 0.122,0.41 0,0.138 -0.029,0.254 -0.086,0.347 -0.057,0.093 -0.134,0.172 -0.23,0.235 -0.096,0.063 -0.206,0.116 -0.329,0.158 -0.124,0.042 -0.248,0.078 -0.374,0.108 l -0.731,0.162 c -0.186,0.048 -0.357,0.104 -0.514,0.167 -0.156,0.063 -0.293,0.141 -0.41,0.235 -0.117,0.092 -0.209,0.207 -0.275,0.341 -0.066,0.136 -0.099,0.303 -0.099,0.501 0,0.235 0.052,0.436 0.158,0.604 0.105,0.169 0.242,0.304 0.41,0.406 0.168,0.102 0.356,0.177 0.563,0.226 0.208,0.048 0.414,0.072 0.618,0.072 0.235,0 0.452,-0.03 0.654,-0.091 C -0.173,0.892 0.004,0.798 0.158,0.672 0.311,0.546 0.433,0.39 0.523,0.203 0.613,0.017 0.664,-0.203 0.676,-0.455 H 0.108 C 0.102,-0.281 0.066,-0.129 0,0"
         fill="#231f20"
         id="path98" />
      <path
         transform="matrix(1,0,0,-1,402.5215,343.3891)"
         d="M 0,0 C -0.036,-0.066 -0.105,-0.114 -0.208,-0.145 -0.31,-0.175 -0.4,-0.195 -0.478,-0.208 -0.719,-0.25 -0.966,-0.287 -1.222,-0.32 -1.478,-0.354 -1.71,-0.403 -1.921,-0.469 c -0.21,-0.066 -0.383,-0.161 -0.518,-0.284 -0.135,-0.124 -0.203,-0.3 -0.203,-0.527 0,-0.145 0.028,-0.273 0.086,-0.384 0.056,-0.111 0.133,-0.207 0.229,-0.288 0.097,-0.081 0.208,-0.144 0.334,-0.186 0.126,-0.042 0.256,-0.062 0.388,-0.062 0.216,0 0.424,0.033 0.622,0.098 0.198,0.067 0.371,0.164 0.519,0.29 0.147,0.125 0.264,0.279 0.351,0.459 0.087,0.18 0.131,0.385 0.131,0.614 V 0 Z m -2.84,1.388 c 0.096,0.199 0.226,0.361 0.392,0.487 0.165,0.126 0.359,0.22 0.581,0.279 0.223,0.061 0.469,0.091 0.74,0.091 0.204,0 0.408,-0.02 0.613,-0.058 C -0.31,2.146 -0.126,2.073 0.036,1.965 0.198,1.857 0.33,1.705 0.433,1.51 0.535,1.314 0.586,1.061 0.586,0.748 v -2.471 c 0,-0.228 0.111,-0.342 0.333,-0.342 0.066,0 0.127,0.012 0.181,0.036 V -2.507 C 1.034,-2.519 0.975,-2.528 0.924,-2.534 0.873,-2.54 0.808,-2.543 0.73,-2.543 c -0.144,0 -0.26,0.02 -0.347,0.059 -0.087,0.039 -0.155,0.094 -0.203,0.167 -0.048,0.072 -0.079,0.157 -0.095,0.256 -0.015,0.1 -0.022,0.209 -0.022,0.33 H 0.045 c -0.103,-0.151 -0.206,-0.285 -0.311,-0.402 -0.106,-0.117 -0.223,-0.215 -0.352,-0.293 -0.129,-0.078 -0.277,-0.137 -0.442,-0.18 -0.165,-0.042 -0.362,-0.063 -0.59,-0.063 -0.217,0 -0.419,0.025 -0.609,0.076 -0.189,0.051 -0.355,0.133 -0.496,0.244 -0.141,0.111 -0.252,0.252 -0.333,0.423 -0.081,0.172 -0.122,0.375 -0.122,0.61 0,0.324 0.072,0.578 0.216,0.761 0.145,0.183 0.335,0.324 0.573,0.419 0.237,0.097 0.505,0.164 0.802,0.203 0.298,0.039 0.6,0.077 0.907,0.113 0.12,0.012 0.225,0.027 0.315,0.045 0.09,0.018 0.166,0.049 0.226,0.094 0.06,0.046 0.106,0.108 0.139,0.186 0.033,0.078 0.05,0.18 0.05,0.307 0,0.191 -0.032,0.349 -0.095,0.472 -0.063,0.123 -0.15,0.221 -0.261,0.293 -0.112,0.072 -0.241,0.122 -0.388,0.15 -0.148,0.026 -0.305,0.04 -0.473,0.04 C -1.56,1.767 -1.854,1.682 -2.083,1.51 -2.312,1.339 -2.432,1.063 -2.444,0.685 h -0.568 c 0.018,0.27 0.075,0.504 0.172,0.703"
         fill="#231f20"
         id="path99" />
      <path
         transform="matrix(1,0,0,-1,407.0928,341.9194)"
         d="M 0,0 C -0.21,0.198 -0.505,0.297 -0.884,0.297 -1.154,0.297 -1.392,0.24 -1.596,0.126 -1.8,0.012 -1.97,-0.139 -2.105,-0.325 -2.241,-0.512 -2.343,-0.724 -2.412,-0.961 -2.481,-1.198 -2.516,-1.44 -2.516,-1.687 c 0,-0.246 0.035,-0.488 0.104,-0.725 0.069,-0.237 0.171,-0.449 0.307,-0.636 0.135,-0.186 0.305,-0.337 0.509,-0.451 0.204,-0.114 0.442,-0.171 0.712,-0.171 0.175,0 0.34,0.033 0.496,0.099 0.157,0.066 0.295,0.158 0.415,0.275 0.12,0.117 0.22,0.257 0.298,0.419 0.078,0.163 0.126,0.34 0.144,0.532 H 1.037 C 0.958,-2.91 0.751,-3.35 0.415,-3.666 c -0.337,-0.315 -0.77,-0.473 -1.299,-0.473 -0.354,0 -0.668,0.065 -0.942,0.194 -0.274,0.13 -0.503,0.305 -0.69,0.527 -0.186,0.223 -0.327,0.482 -0.423,0.78 -0.097,0.298 -0.144,0.615 -0.144,0.951 0,0.337 0.047,0.654 0.144,0.952 0.096,0.298 0.237,0.557 0.423,0.78 0.187,0.222 0.416,0.399 0.69,0.531 0.274,0.133 0.588,0.199 0.942,0.199 0.499,0 0.922,-0.132 1.267,-0.397 0.346,-0.265 0.552,-0.664 0.618,-1.199 H 0.433 C 0.354,-0.473 0.21,-0.199 0,0"
         fill="#231f20"
         id="path100" />
      <path
         transform="matrix(1,0,0,-1,410.771,341.2797)"
         d="m 0,0 v -0.478 h -0.947 v -3.137 c 0,-0.187 0.026,-0.332 0.077,-0.438 0.051,-0.105 0.179,-0.164 0.383,-0.176 0.163,0 0.325,0.009 0.487,0.028 V -4.68 c -0.084,0 -0.168,-0.003 -0.252,-0.008 -0.084,-0.006 -0.168,-0.009 -0.253,-0.009 -0.378,0 -0.643,0.073 -0.793,0.22 -0.151,0.148 -0.223,0.419 -0.217,0.817 v 3.182 H -2.326 V 0 h 0.811 v 1.397 h 0.568 V 0 Z"
         fill="#231f20"
         id="path101" />
      <path
         transform="matrix(1,0,0,-1,0,595.276)"
         d="m 412.169,249.344 h -0.568 v 4.65199 h 0.568 z m 0,5.527 h -0.568 v 0.91 h 0.568 z"
         fill="#231f20"
         id="path102" />
      <path
         transform="matrix(1,0,0,-1,414.5132,341.7934)"
         d="M 0,0 C -0.205,-0.114 -0.375,-0.265 -0.51,-0.451 -0.645,-0.638 -0.747,-0.85 -0.816,-1.087 -0.885,-1.324 -0.92,-1.566 -0.92,-1.812 c 0,-0.247 0.035,-0.489 0.104,-0.726 0.069,-0.237 0.171,-0.449 0.306,-0.636 0.135,-0.186 0.305,-0.337 0.51,-0.451 0.204,-0.114 0.441,-0.171 0.712,-0.171 0.27,0 0.508,0.057 0.712,0.171 0.204,0.114 0.374,0.265 0.51,0.451 0.135,0.187 0.237,0.399 0.306,0.636 0.07,0.237 0.104,0.479 0.104,0.726 0,0.246 -0.034,0.488 -0.104,0.725 C 2.171,-0.85 2.069,-0.638 1.934,-0.451 1.798,-0.265 1.628,-0.114 1.424,0 1.22,0.114 0.982,0.171 0.712,0.171 0.441,0.171 0.204,0.114 0,0 M 1.654,0.45 C 1.928,0.318 2.158,0.141 2.344,-0.081 2.53,-0.304 2.671,-0.563 2.768,-0.861 2.864,-1.159 2.912,-1.476 2.912,-1.812 2.912,-2.149 2.864,-2.466 2.768,-2.764 2.671,-3.062 2.53,-3.321 2.344,-3.544 2.158,-3.766 1.928,-3.941 1.654,-4.071 1.381,-4.2 1.067,-4.265 0.712,-4.265 c -0.355,0 -0.669,0.065 -0.942,0.194 -0.274,0.13 -0.503,0.305 -0.69,0.527 -0.186,0.223 -0.328,0.482 -0.424,0.78 -0.096,0.298 -0.144,0.615 -0.144,0.952 0,0.336 0.048,0.653 0.144,0.951 0.096,0.298 0.238,0.557 0.424,0.78 0.187,0.222 0.416,0.399 0.69,0.531 0.273,0.133 0.587,0.199 0.942,0.199 0.355,0 0.669,-0.066 0.942,-0.199"
         fill="#231f20"
         id="path103" />
      <path
         transform="matrix(1,0,0,-1,418.8315,341.2797)"
         d="m 0,0 v -0.803 h 0.018 c 0.108,0.283 0.3,0.51 0.577,0.681 0.277,0.172 0.58,0.258 0.91,0.258 0.325,0 0.597,-0.043 0.817,-0.127 C 2.541,-0.075 2.717,-0.193 2.849,-0.347 2.981,-0.5 3.074,-0.688 3.128,-0.91 3.182,-1.133 3.209,-1.383 3.209,-1.659 V -4.652 H 2.642 v 2.903 c 0,0.198 -0.018,0.383 -0.055,0.555 -0.036,0.171 -0.099,0.319 -0.189,0.446 -0.09,0.126 -0.211,0.226 -0.365,0.297 -0.153,0.072 -0.344,0.108 -0.573,0.108 -0.228,0 -0.431,-0.04 -0.608,-0.121 C 0.674,-0.546 0.524,-0.656 0.401,-0.798 0.278,-0.939 0.182,-1.107 0.113,-1.303 0.043,-1.498 0.006,-1.71 0,-1.938 V -4.652 H -0.568 V 0 Z"
         fill="#231f20"
         id="path104" />
      <path
         transform="matrix(1,0,0,-1,425.792,342.186)"
         d="m 0,0 c -0.066,0.129 -0.154,0.236 -0.266,0.32 -0.111,0.084 -0.239,0.146 -0.383,0.185 -0.144,0.039 -0.297,0.058 -0.46,0.058 -0.126,0 -0.254,-0.013 -0.383,-0.04 C -1.621,0.496 -1.74,0.451 -1.849,0.388 -1.956,0.325 -2.044,0.242 -2.109,0.14 c -0.067,-0.102 -0.1,-0.229 -0.1,-0.378 0,-0.127 0.031,-0.234 0.095,-0.321 0.063,-0.087 0.142,-0.161 0.239,-0.22 0.096,-0.061 0.201,-0.111 0.315,-0.15 0.115,-0.039 0.219,-0.07 0.316,-0.094 l 0.757,-0.171 c 0.163,-0.025 0.323,-0.068 0.482,-0.131 C 0.154,-1.389 0.296,-1.471 0.419,-1.573 0.542,-1.676 0.644,-1.802 0.722,-1.952 0.8,-2.103 0.839,-2.279 0.839,-2.483 0.839,-2.736 0.781,-2.951 0.667,-3.129 0.553,-3.306 0.407,-3.45 0.229,-3.562 0.053,-3.673 -0.147,-3.752 -0.369,-3.8 c -0.223,-0.049 -0.443,-0.072 -0.658,-0.072 -0.548,0 -0.992,0.129 -1.33,0.388 -0.34,0.257 -0.535,0.672 -0.582,1.244 h 0.568 c 0.023,-0.385 0.164,-0.675 0.419,-0.87 0.256,-0.196 0.572,-0.293 0.951,-0.293 0.139,0 0.281,0.014 0.429,0.045 0.147,0.03 0.284,0.081 0.41,0.153 0.126,0.072 0.229,0.164 0.31,0.275 0.081,0.111 0.123,0.247 0.123,0.41 0,0.138 -0.029,0.254 -0.086,0.347 -0.057,0.093 -0.134,0.172 -0.23,0.235 -0.097,0.063 -0.206,0.116 -0.329,0.158 -0.123,0.042 -0.248,0.078 -0.374,0.108 l -0.731,0.162 c -0.186,0.048 -0.357,0.104 -0.513,0.167 -0.156,0.063 -0.293,0.141 -0.41,0.235 -0.118,0.092 -0.209,0.207 -0.276,0.341 -0.066,0.136 -0.099,0.303 -0.099,0.501 0,0.235 0.052,0.436 0.158,0.604 0.105,0.169 0.242,0.304 0.41,0.406 0.168,0.102 0.356,0.177 0.563,0.226 0.208,0.048 0.414,0.072 0.619,0.072 0.234,0 0.452,-0.03 0.653,-0.091 C -0.173,0.892 0.005,0.798 0.158,0.672 0.312,0.546 0.433,0.39 0.523,0.203 0.613,0.017 0.664,-0.203 0.677,-0.455 H 0.108 C 0.103,-0.281 0.066,-0.129 0,0"
         fill="#231f20"
         id="path105" />
      <path
         transform="matrix(1,0,0,-1,430.5078,344.643)"
         d="m 0,0 c 0.108,-0.223 0.257,-0.399 0.446,-0.531 0.19,-0.133 0.413,-0.228 0.672,-0.284 0.259,-0.058 0.535,-0.086 0.829,-0.086 0.169,0 0.352,0.024 0.551,0.072 0.198,0.048 0.383,0.125 0.554,0.229 0.172,0.106 0.314,0.241 0.428,0.407 0.115,0.165 0.171,0.365 0.171,0.599 0,0.18 -0.04,0.336 -0.121,0.469 C 3.449,1.007 3.344,1.118 3.215,1.208 3.085,1.299 2.942,1.372 2.786,1.43 2.63,1.486 2.477,1.533 2.326,1.569 L 0.893,1.921 C 0.706,1.969 0.524,2.029 0.348,2.101 0.17,2.173 0.015,2.27 -0.117,2.39 c -0.132,0.12 -0.239,0.267 -0.32,0.441 -0.082,0.175 -0.122,0.388 -0.122,0.641 0,0.156 0.03,0.34 0.09,0.549 0.061,0.21 0.173,0.41 0.338,0.595 0.165,0.187 0.393,0.345 0.681,0.474 0.289,0.129 0.658,0.194 1.109,0.194 0.319,0 0.622,-0.043 0.91,-0.127 C 2.858,5.073 3.11,4.947 3.327,4.779 3.544,4.61 3.716,4.401 3.846,4.152 3.975,3.902 4.039,3.612 4.039,3.282 H 3.427 C 3.414,3.528 3.358,3.743 3.26,3.927 3.16,4.11 3.031,4.264 2.872,4.387 2.713,4.51 2.529,4.604 2.322,4.666 2.114,4.729 1.896,4.761 1.668,4.761 1.458,4.761 1.255,4.738 1.06,4.693 0.864,4.648 0.692,4.576 0.546,4.477 0.398,4.378 0.279,4.247 0.189,4.085 0.1,3.922 0.055,3.721 0.055,3.48 0.055,3.33 0.08,3.199 0.131,3.088 0.182,2.977 0.253,2.883 0.343,2.805 0.433,2.727 0.536,2.663 0.654,2.615 0.771,2.566 0.896,2.527 1.028,2.498 L 2.597,2.11 C 2.825,2.05 3.04,1.977 3.241,1.89 3.442,1.802 3.62,1.693 3.773,1.564 3.927,1.436 4.047,1.277 4.134,1.091 4.221,0.905 4.265,0.68 4.265,0.415 4.265,0.343 4.257,0.247 4.242,0.127 4.228,0.006 4.191,-0.121 4.134,-0.257 4.077,-0.392 3.996,-0.528 3.891,-0.667 3.785,-0.806 3.642,-0.93 3.458,-1.041 3.274,-1.152 3.048,-1.242 2.777,-1.312 2.507,-1.381 2.182,-1.415 1.804,-1.415 c -0.379,0 -0.731,0.043 -1.056,0.131 -0.324,0.087 -0.601,0.221 -0.829,0.4 -0.229,0.181 -0.404,0.412 -0.527,0.695 -0.123,0.283 -0.176,0.622 -0.159,1.019 h 0.614 C -0.159,0.499 -0.108,0.223 0,0"
         fill="#231f20"
         id="path106" />
      <path
         transform="matrix(1,0,0,-1,0,595.276)"
         d="m 436.215,249.344 h -0.568 v 4.65199 h 0.568 z m 0,5.527 h -0.568 v 0.91 h 0.568 z"
         fill="#231f20"
         id="path107" />
      <path
         transform="matrix(1,0,0,-1,437.8281,341.2797)"
         d="m 0,0 v -0.784 h 0.027 c 0.151,0.288 0.348,0.513 0.591,0.676 0.243,0.162 0.555,0.244 0.933,0.244 0.306,0 0.585,-0.075 0.834,-0.226 0.25,-0.15 0.417,-0.379 0.501,-0.685 0.137,0.306 0.343,0.535 0.613,0.685 0.271,0.151 0.559,0.226 0.865,0.226 1.029,0 1.542,-0.545 1.542,-1.633 V -4.652 H 5.338 v 3.129 c 0,0.384 -0.081,0.677 -0.243,0.878 -0.162,0.202 -0.449,0.302 -0.857,0.302 -0.247,0 -0.451,-0.047 -0.613,-0.139 C 3.463,-0.575 3.333,-0.7 3.237,-0.856 3.141,-1.013 3.073,-1.191 3.034,-1.393 2.995,-1.595 2.976,-1.803 2.976,-2.02 V -4.652 H 2.408 v 3.155 c 0,0.156 -0.016,0.306 -0.05,0.446 -0.033,0.142 -0.087,0.265 -0.162,0.37 -0.075,0.106 -0.175,0.188 -0.302,0.248 -0.126,0.06 -0.28,0.09 -0.46,0.09 -0.241,0 -0.45,-0.044 -0.626,-0.131 C 0.63,-0.561 0.485,-0.681 0.375,-0.834 0.264,-0.987 0.181,-1.168 0.127,-1.375 0.072,-1.582 0.046,-1.81 0.046,-2.056 V -4.652 H -0.522 V 0 Z"
         fill="#231f20"
         id="path108" />
      <path
         transform="matrix(1,0,0,-1,448.4541,342.8891)"
         d="M 0,0 C -0.057,0.237 -0.147,0.449 -0.271,0.636 -0.394,0.822 -0.551,0.974 -0.743,1.091 -0.936,1.208 -1.167,1.267 -1.437,1.267 -1.75,1.267 -2.012,1.213 -2.223,1.104 -2.433,0.996 -2.601,0.853 -2.728,0.672 -2.854,0.491 -2.942,0.281 -2.993,0.041 -3.044,-0.2 -3.069,-0.452 -3.069,-0.717 c 0,-0.24 0.028,-0.479 0.085,-0.717 0.057,-0.237 0.15,-0.449 0.28,-0.635 0.129,-0.187 0.297,-0.338 0.505,-0.455 0.207,-0.118 0.461,-0.176 0.762,-0.176 0.27,0 0.501,0.058 0.694,0.176 0.192,0.117 0.349,0.268 0.472,0.455 0.124,0.186 0.214,0.398 0.271,0.635 0.058,0.238 0.086,0.477 0.086,0.717 C 0.086,-0.477 0.058,-0.237 0,0 M -3.115,1.609 V 0.726 h 0.018 c 0.132,0.325 0.347,0.576 0.645,0.753 0.298,0.177 0.636,0.266 1.015,0.266 0.354,0 0.662,-0.066 0.923,-0.199 C -0.252,1.414 -0.034,1.235 0.14,1.01 0.314,0.784 0.443,0.523 0.527,0.226 0.612,-0.072 0.654,-0.387 0.654,-0.717 0.654,-1.048 0.612,-1.361 0.527,-1.659 0.443,-1.956 0.314,-2.218 0.14,-2.443 c -0.174,-0.226 -0.392,-0.403 -0.654,-0.533 -0.261,-0.128 -0.569,-0.193 -0.923,-0.193 -0.169,0 -0.337,0.021 -0.505,0.063 -0.169,0.043 -0.326,0.105 -0.469,0.189 -0.145,0.084 -0.273,0.189 -0.384,0.315 -0.111,0.127 -0.196,0.274 -0.257,0.443 h -0.017 v -2.597 h -0.569 v 6.365 z"
         fill="#231f20"
         id="path109" />
      <path
         transform="matrix(1,0,0,-1,0,595.276)"
         d="M 450.568,249.344 H 450 v 6.43699 h 0.568 z"
         fill="#231f20"
         id="path110" />
      <path
         transform="matrix(1,0,0,-1,0,595.276)"
         d="m 452.236,249.344 h -0.568 v 4.65199 h 0.568 z m 0,5.527 h -0.568 v 0.91 h 0.568 z"
         fill="#231f20"
         id="path111" />
      <path
         transform="matrix(1,0,0,-1,454.2021,341.7573)"
         d="M 0,0 V -4.175 H -0.568 V 0 h -0.794 v 0.478 h 0.794 v 0.423 c 0,0.199 0.014,0.382 0.045,0.55 0.03,0.168 0.086,0.313 0.17,0.433 0.085,0.12 0.201,0.214 0.348,0.28 C 0.143,2.229 0.33,2.263 0.559,2.263 0.643,2.263 0.721,2.26 0.793,2.254 0.865,2.248 0.946,2.238 1.036,2.227 V 1.74 C 0.958,1.752 0.886,1.763 0.82,1.771 0.754,1.78 0.687,1.785 0.622,1.785 0.465,1.785 0.345,1.761 0.261,1.713 0.177,1.665 0.115,1.601 0.076,1.519 0.037,1.437 0.015,1.343 0.009,1.235 0.003,1.127 0,1.01 0,0.884 V 0.478 H 0.919 V 0 Z"
         fill="#231f20"
         id="path112" />
      <path
         transform="matrix(1,0,0,-1,0,595.276)"
         d="m 456.239,249.344 h -0.56797 v 4.65199 h 0.56797 z m 0,5.527 h -0.56797 v 0.91 h 0.56797 z"
         fill="#231f20"
         id="path113" />
      <path
         transform="matrix(1,0,0,-1,460.5625,342.6596)"
         d="m 0,0 c -0.069,0.199 -0.167,0.375 -0.293,0.528 -0.126,0.154 -0.279,0.277 -0.46,0.369 -0.181,0.093 -0.385,0.14 -0.613,0.14 -0.235,0 -0.442,-0.047 -0.622,-0.14 C -2.169,0.805 -2.322,0.682 -2.448,0.528 -2.574,0.375 -2.675,0.197 -2.75,-0.004 -2.825,-0.205 -2.875,-0.411 -2.898,-0.622 h 3.01 C 0.106,-0.405 0.069,-0.198 0,0 m -2.813,-1.735 c 0.057,-0.22 0.149,-0.416 0.275,-0.591 0.126,-0.174 0.285,-0.319 0.477,-0.433 0.193,-0.114 0.424,-0.171 0.695,-0.171 0.415,0 0.739,0.109 0.973,0.325 0.235,0.216 0.397,0.504 0.488,0.866 H 0.662 C 0.542,-2.269 0.321,-2.678 0,-2.966 c -0.321,-0.289 -0.777,-0.432 -1.366,-0.432 -0.366,0 -0.684,0.064 -0.951,0.193 -0.268,0.13 -0.486,0.307 -0.654,0.532 -0.169,0.226 -0.293,0.487 -0.374,0.784 -0.082,0.298 -0.122,0.612 -0.122,0.943 0,0.306 0.04,0.607 0.122,0.901 0.081,0.295 0.205,0.558 0.374,0.789 0.168,0.232 0.386,0.418 0.654,0.56 0.267,0.14 0.585,0.212 0.951,0.212 0.373,0 0.691,-0.076 0.956,-0.226 C -0.146,1.14 0.069,0.942 0.234,0.699 0.399,0.456 0.519,0.176 0.591,-0.14 0.662,-0.455 0.692,-0.775 0.681,-1.1 h -3.579 c 0,-0.204 0.028,-0.416 0.085,-0.635"
         fill="#231f20"
         id="path114" />
      <path
         transform="matrix(1,0,0,-1,462.4648,344.3227)"
         d="m 0,0 c 0.058,-0.237 0.147,-0.449 0.271,-0.636 0.123,-0.186 0.281,-0.338 0.473,-0.455 0.193,-0.117 0.424,-0.176 0.694,-0.176 0.301,0 0.555,0.059 0.762,0.176 0.207,0.117 0.376,0.269 0.505,0.455 C 2.834,-0.449 2.928,-0.237 2.984,0 3.042,0.237 3.07,0.477 3.07,0.717 3.07,0.957 3.042,1.196 2.984,1.434 2.928,1.671 2.834,1.883 2.705,2.069 2.576,2.256 2.407,2.407 2.2,2.524 1.993,2.642 1.739,2.7 1.438,2.7 1.168,2.7 0.937,2.642 0.744,2.524 0.552,2.407 0.394,2.256 0.271,2.069 0.147,1.883 0.058,1.671 0,1.434 -0.057,1.196 -0.086,0.957 -0.086,0.717 -0.086,0.477 -0.057,0.237 0,0 m 3.115,-1.609 v 0.883 H 3.098 C 3.037,-0.876 2.948,-1.015 2.831,-1.141 2.714,-1.267 2.58,-1.374 2.43,-1.461 2.279,-1.548 2.119,-1.615 1.947,-1.663 1.776,-1.712 1.606,-1.735 1.438,-1.735 c -0.354,0 -0.663,0.064 -0.924,0.193 -0.261,0.13 -0.479,0.307 -0.654,0.532 -0.173,0.226 -0.303,0.488 -0.387,0.784 -0.084,0.298 -0.126,0.612 -0.126,0.943 0,0.33 0.042,0.644 0.126,0.942 0.084,0.298 0.214,0.559 0.387,0.784 0.175,0.226 0.393,0.405 0.654,0.536 0.261,0.133 0.57,0.2 0.924,0.2 0.174,0 0.344,-0.022 0.509,-0.064 C 2.113,3.073 2.268,3.009 2.412,2.921 2.557,2.834 2.684,2.728 2.795,2.602 2.906,2.475 2.992,2.328 3.052,2.159 H 3.07 v 2.669 h 0.569 v -6.437 z"
         fill="#231f20"
         id="path115" />
    </g>
  </g>
</svg>
